<svg width="144" height="43" viewBox="0 0 144 43" fill="none" xmlns="http://www.w3.org/2000/svg">
<path fill-rule="evenodd" clip-rule="evenodd" d="M20.0243 0.110655C19.8819 0.171551 19.1444 0.618096 18.3854 1.10291C13.1753 4.43051 7.73716 6.45556 2.38489 7.06116C0.953466 7.22316 0.269628 7.71159 0.0459663 8.73152C-0.0770349 9.29296 0.0632173 13.3327 0.272647 15.2594C1.09355 22.8096 3.20337 29.044 6.50637 33.6796C7.4645 35.0242 8.13946 35.8068 9.41156 37.0478C12.2195 39.787 15.0738 41.4722 18.9892 42.7021C20.2537 43.0993 20.7436 43.0993 22.0081 42.7021C24.9302 41.7842 27.1779 40.6398 29.5457 38.8644C30.4251 38.2051 32.4997 36.2128 33.2379 35.3188C37.2859 30.4164 39.747 23.8752 40.6859 15.5226C40.9275 13.374 41.0848 9.34368 40.951 8.73152C40.7281 7.71176 40.044 7.22316 38.6124 7.06116C33.1116 6.43874 27.507 4.31183 22.146 0.812056C20.8582 -0.0286326 20.5711 -0.12351 20.0243 0.110655Z" fill="#9CA3AF"/>
<path fill-rule="evenodd" clip-rule="evenodd" d="M28.6636 16.3254C29.1121 16.7594 29.1121 17.4629 28.6636 17.8968L18.5555 27.6746C18.1069 28.1085 17.3796 28.1085 16.931 27.6746L12.3364 23.2301C11.8879 22.7962 11.8879 22.0927 12.3364 21.6588C12.785 21.2249 13.5123 21.2249 13.9609 21.6588L17.7432 25.3175L27.0391 16.3254C27.4877 15.8915 28.215 15.8915 28.6636 16.3254Z" fill="white"/>
<path d="M65.4812 22.6927C65.4812 24.6339 64.9009 26.1721 63.7404 27.3073C62.5798 28.4358 61.001 29 59.0037 29C56.8311 29 55.1206 28.3182 53.8724 26.9547C52.6241 25.5911 52 23.7204 52 21.3426C52 18.9983 52.6241 17.1411 53.8724 15.7708C55.1206 14.4005 56.8075 13.7154 58.9329 13.7154C60.6602 13.7154 62.1075 14.1721 63.2748 15.0856C64.4421 15.9992 65.1337 17.2116 65.3496 18.7229H62.3133C62.0839 17.984 61.6757 17.4131 61.0887 17.0101C60.5016 16.6003 59.7831 16.3955 58.9329 16.3955C57.7521 16.3955 56.821 16.8354 56.1395 17.7154C55.4648 18.5886 55.1274 19.7876 55.1274 21.3123C55.1274 22.864 55.4783 24.0865 56.18 24.9798C56.8884 25.8732 57.8466 26.3199 59.0543 26.3199C60.053 26.3199 60.8694 26.0512 61.5036 25.5139C62.1379 24.9765 62.4719 24.2678 62.5056 23.3879L62.5157 23.1259H59.3479V20.8388H65.4812V22.6927Z" fill="#9CA3AF"/>
<path d="M78.2235 17.5139V28.6272H75.3694V26.8438H75.1872C74.634 28.194 73.5476 28.869 71.9283 28.869C70.7205 28.869 69.7657 28.5063 69.064 27.7809C68.369 27.0487 68.0216 26.0411 68.0216 24.7582V17.5139H70.9668V24.0025C70.9668 25.5474 71.6516 26.3199 73.0213 26.3199C73.7433 26.3199 74.3 26.1083 74.6913 25.6851C75.0827 25.262 75.2783 24.6742 75.2783 23.9219V17.5139H78.2235Z" fill="#9CA3AF"/>
<path d="M85.207 26.5919C85.8885 26.5919 86.4587 26.4005 86.9175 26.0176C87.3763 25.6348 87.6057 25.1612 87.6057 24.597V23.7809L85.3487 23.9219C84.0937 24.0092 83.4662 24.4559 83.4662 25.262C83.4662 25.6717 83.6248 25.9975 83.9419 26.2393C84.2658 26.4744 84.6875 26.5919 85.207 26.5919ZM84.2354 28.7985C83.1558 28.7985 82.2753 28.4929 81.5938 27.8816C80.9191 27.2704 80.5817 26.461 80.5817 25.4534C80.5817 24.4526 80.9528 23.6667 81.695 23.0957C82.444 22.5181 83.5135 22.1889 84.9034 22.1083L87.6057 21.9471V21.0403C87.6057 20.5768 87.4438 20.2208 87.1199 19.9723C86.796 19.717 86.3305 19.5894 85.7232 19.5894C84.6301 19.5894 83.9588 19.932 83.7091 20.6171H80.9967C81.0912 19.5894 81.577 18.7767 82.4541 18.1788C83.338 17.5743 84.4817 17.272 85.8851 17.272C87.3561 17.272 88.493 17.6012 89.2959 18.2594C90.1056 18.9177 90.5104 19.8447 90.5104 21.0403V28.6272H87.6563V27.1763H87.4741C87.184 27.6868 86.7522 28.0865 86.1787 28.3753C85.6051 28.6574 84.9574 28.7985 84.2354 28.7985Z" fill="#9CA3AF"/>
<path d="M93.4051 28.6272V17.5139H96.2592V19.2872H96.4414C96.5898 18.7229 96.9272 18.2561 97.4535 17.8867C97.9865 17.5172 98.6039 17.3325 99.3056 17.3325C99.8117 17.3325 100.196 17.3795 100.459 17.4736V20.1436C100.149 20.0227 99.6835 19.9622 99.0627 19.9622C98.2463 19.9622 97.5884 20.1872 97.0891 20.6373C96.5966 21.0873 96.3503 21.6986 96.3503 22.471V28.6272H93.4051Z" fill="#9CA3AF"/>
<path d="M106.168 28.7985C104.764 28.7985 103.654 28.2846 102.838 27.2569C102.028 26.2292 101.623 24.8287 101.623 23.0554C101.623 21.2888 102.028 19.895 102.838 18.8741C103.654 17.8463 104.764 17.3325 106.168 17.3325C106.923 17.3325 107.595 17.5071 108.182 17.8564C108.769 18.199 109.207 18.6759 109.497 19.2872H109.67V13.272H112.615V28.6272H109.761V26.8841H109.578C109.282 27.4819 108.833 27.9521 108.232 28.2947C107.632 28.6306 106.944 28.7985 106.168 28.7985ZM109.022 20.6776C108.57 20.0865 107.952 19.7909 107.17 19.7909C106.387 19.7909 105.77 20.0831 105.317 20.6675C104.872 21.2452 104.65 22.0445 104.65 23.0655C104.65 24.0932 104.872 24.8992 105.317 25.4836C105.763 26.0613 106.38 26.3501 107.17 26.3501C107.959 26.3501 108.576 26.0613 109.022 25.4836C109.474 24.8992 109.7 24.0966 109.7 23.0756C109.7 22.0613 109.474 21.262 109.022 20.6776Z" fill="#9CA3AF"/>
<path d="M115.692 28.6272V17.5139H118.637V28.6272H115.692ZM117.169 15.9622C116.643 15.9622 116.221 15.8245 115.904 15.5491C115.587 15.2737 115.428 14.9177 115.428 14.4811C115.428 14.0378 115.587 13.6818 115.904 13.4131C116.221 13.1377 116.643 13 117.169 13C117.695 13 118.117 13.1377 118.434 13.4131C118.751 13.6818 118.91 14.0378 118.91 14.4811C118.91 14.9177 118.748 15.2737 118.424 15.5491C118.107 15.8245 117.689 15.9622 117.169 15.9622Z" fill="#9CA3AF"/>
<path d="M125.651 26.5919C126.332 26.5919 126.902 26.4005 127.361 26.0176C127.82 25.6348 128.049 25.1612 128.049 24.597V23.7809L125.792 23.9219C124.537 24.0092 123.91 24.4559 123.91 25.262C123.91 25.6717 124.068 25.9975 124.385 26.2393C124.709 26.4744 125.131 26.5919 125.651 26.5919ZM124.679 28.7985C123.599 28.7985 122.719 28.4929 122.037 27.8816C121.363 27.2704 121.025 26.461 121.025 25.4534C121.025 24.4526 121.396 23.6667 122.139 23.0957C122.888 22.5181 123.957 22.1889 125.347 22.1083L128.049 21.9471V21.0403C128.049 20.5768 127.887 20.2208 127.563 19.9723C127.24 19.717 126.774 19.5894 126.167 19.5894C125.074 19.5894 124.402 19.932 124.153 20.6171H121.44C121.535 19.5894 122.021 18.7767 122.898 18.1788C123.782 17.5743 124.925 17.272 126.329 17.272C127.8 17.272 128.937 17.6012 129.739 18.2594C130.549 18.9177 130.954 19.8447 130.954 21.0403V28.6272H128.1V27.1763H127.918C127.628 27.6868 127.196 28.0865 126.622 28.3753C126.049 28.6574 125.401 28.7985 124.679 28.7985Z" fill="#9CA3AF"/>
<path d="M133.849 28.6272V17.5139H136.703V19.2972H136.885C137.148 18.6591 137.56 18.162 138.12 17.806C138.686 17.45 139.375 17.272 140.184 17.272C141.419 17.272 142.364 17.6348 143.018 18.3602C143.673 19.0789 144 20.1066 144 21.4433V28.6272H141.055V22.1385C141.055 20.5802 140.37 19.801 139 19.801C138.319 19.801 137.779 20.0227 137.381 20.466C136.99 20.9026 136.794 21.487 136.794 22.2191V28.6272H133.849Z" fill="#9CA3AF"/>
</svg>
