<svg width="144" height="43" viewBox="0 0 144 43" fill="none" xmlns="http://www.w3.org/2000/svg">
<path d="M19.0231 27.5699C19.0231 27.5699 15.1253 37.8621 9.44186 42.9958H7.24287C9.18558 41.7682 15.2824 34.0305 19.0231 27.5699Z" fill="#9CA3AF"/>
<path d="M12.7445 15.8806C12.7445 15.8806 17.1259 5.19158 22.9995 0H25.3018C23.4831 1.07882 16.7167 9.01912 12.7445 15.8806Z" fill="#9CA3AF"/>
<path d="M30.791 19.6709C29.7989 22.5974 28.5754 26.9705 28.0712 31.8935C27.3933 38.4739 23.8592 41.3797 22.057 42.4502C21.7305 42.6445 21.28 42.785 20.9245 42.8718C20.5855 42.9545 19.6307 42.9958 19.6307 42.9958H14.5756C17.6343 41.3053 21.0816 38.0399 22.8631 31.7488C22.8631 31.7488 24.8843 21.7418 26.3806 18.3276C26.3806 18.3276 17.5103 21.8368 11.8888 29.6325C6.24671 37.4529 5.90362 43 5.90362 43H3.89478C1.64206 42.9545 0.608726 40.0446 0.16645 36.7254C-0.424629 32.2861 0.687241 25.6975 1.48912 23.329C2.48115 20.4026 3.70465 16.0294 4.20892 11.1065C4.87027 4.69968 8.34235 1.92615 10.0784 0.640656C10.4049 0.396784 10.934 0.190131 11.5209 0.0909288C12.0418 -6.46012e-06 12.6494 0.00411788 12.6494 0.00411788H18.0228C14.8731 1.63269 11.2068 4.89808 9.34676 11.462C9.34676 11.462 7.32552 21.469 5.82922 24.8832C5.82922 24.8832 15.0839 21.6384 20.321 13.5783C20.321 13.5783 25.525 6.58453 26.3145 0.00411788H28.3274C30.6173 0.00411788 31.6631 2.93471 32.1095 6.27865C32.1261 6.40679 32.1426 6.53492 32.155 6.66305C32.2046 7.94855 32.2294 9.29604 32.2418 10.5857C32.0806 14.2231 31.3572 17.9969 30.791 19.6709Z" fill="#9CA3AF"/>
<path d="M51.8761 25.526H50.3452V20.0377H44.523V25.526H43V13.6524H44.523V18.7574H50.3452V13.6524H51.8761V25.526Z" fill="#9CA3AF"/>
<path d="M57.9124 25.6891C56.7491 25.6891 55.8025 25.2977 55.0727 24.5148C54.343 23.7265 53.9781 22.6745 53.9781 21.3588V21.0815C53.9781 20.2063 54.1394 19.4261 54.4619 18.7411C54.7898 18.0506 55.2446 17.5124 55.8263 17.1264C56.4133 16.735 57.0478 16.5392 57.73 16.5392C58.8458 16.5392 59.713 16.9171 60.3317 17.6728C60.9504 18.4285 61.2598 19.5104 61.2598 20.9184V21.5464H55.4455C55.4667 22.4162 55.7126 23.1203 56.1832 23.6585C56.6592 24.1913 57.262 24.4577 57.9918 24.4577C58.51 24.4577 58.9489 24.349 59.3085 24.1315C59.6681 23.914 59.9827 23.6259 60.2524 23.2671L61.1487 23.9847C60.4296 25.121 59.3508 25.6891 57.9124 25.6891ZM57.73 17.7788C57.1377 17.7788 56.6406 18.0017 56.2387 18.4475C55.8369 18.8879 55.5883 19.5076 55.4931 20.3068H59.7924V20.1927C59.75 19.4261 59.5491 18.8335 59.1895 18.4149C58.8299 17.9908 58.3434 17.7788 57.73 17.7788Z" fill="#9CA3AF"/>
<path d="M64.5596 25.526H63.0921V13H64.5596V25.526Z" fill="#9CA3AF"/>
<path d="M74.1654 21.212C74.1654 22.5549 73.8666 23.6368 73.2691 24.4577C72.6715 25.2786 71.8624 25.6891 70.8418 25.6891C69.8001 25.6891 68.9804 25.3493 68.3829 24.6697V28.9185H66.9154V16.7023H68.2559L68.3273 17.6809C68.9249 16.9198 69.7551 16.5392 70.818 16.5392C71.8492 16.5392 72.6636 16.9388 73.2611 17.738C73.864 18.5372 74.1654 19.649 74.1654 21.0734V21.212ZM72.698 21.0408C72.698 20.0459 72.4917 19.2603 72.0792 18.684C71.6668 18.1077 71.1009 17.8196 70.3818 17.8196C69.4934 17.8196 68.8271 18.2246 68.3829 19.0347V23.2508C68.8218 24.0554 69.4934 24.4577 70.3976 24.4577C71.1009 24.4577 71.6588 24.1723 72.0713 23.6014C72.4891 23.0251 72.698 22.1716 72.698 21.0408Z" fill="#9CA3AF"/>
<path d="M77.6317 25.526H76.1643V16.7023H77.6317V25.526ZM76.0453 14.3619C76.0453 14.1172 76.1167 13.9106 76.2595 13.7421C76.4076 13.5736 76.6244 13.4893 76.9099 13.4893C77.1955 13.4893 77.4123 13.5736 77.5604 13.7421C77.7084 13.9106 77.7825 14.1172 77.7825 14.3619C77.7825 14.6065 77.7084 14.8104 77.5604 14.9735C77.4123 15.1366 77.1955 15.2181 76.9099 15.2181C76.6244 15.2181 76.4076 15.1366 76.2595 14.9735C76.1167 14.8104 76.0453 14.6065 76.0453 14.3619Z" fill="#9CA3AF"/>
<path d="M81.3757 16.7023L81.4233 17.8114C82.079 16.9633 82.9357 16.5392 83.9933 16.5392C85.8071 16.5392 86.722 17.5912 86.7378 19.6952V25.526H85.2704V19.6871C85.2651 19.051 85.1223 18.5807 84.8421 18.2762C84.5671 17.9718 84.1361 17.8196 83.5491 17.8196C83.0732 17.8196 82.6554 17.9501 82.2958 18.211C81.9363 18.472 81.656 18.8145 81.455 19.2385V25.526H79.9876V16.7023H81.3757Z" fill="#9CA3AF"/>
<path d="M88.6019 21.0408C88.6019 19.6653 88.9113 18.5725 89.53 17.7625C90.1487 16.947 90.9683 16.5392 91.9889 16.5392C93.036 16.5392 93.853 16.9198 94.44 17.6809L94.5113 16.7023H95.8519V25.314C95.8519 26.4557 95.5214 27.3554 94.8604 28.0133C94.2046 28.6711 93.3215 29 92.211 29C91.5923 29 90.9868 28.8641 90.3946 28.5923C89.8023 28.3204 89.3502 27.948 89.0382 27.475L89.7997 26.5698C90.4289 27.369 91.1984 27.7686 92.1079 27.7686C92.8218 27.7686 93.3771 27.562 93.7737 27.1488C94.1756 26.7356 94.3765 26.1539 94.3765 25.4037V24.6453C93.7895 25.3411 92.9884 25.6891 91.9731 25.6891C90.9683 25.6891 90.154 25.2732 89.53 24.4414C88.9113 23.6096 88.6019 22.476 88.6019 21.0408ZM90.0773 21.212C90.0773 22.2069 90.2756 22.9898 90.6722 23.5607C91.0688 24.1261 91.624 24.4088 92.3379 24.4088C93.2634 24.4088 93.9429 23.9766 94.3765 23.1121V19.0836C93.927 18.2409 93.2528 17.8196 92.3538 17.8196C91.6399 17.8196 91.082 18.105 90.6801 18.6758C90.2782 19.2467 90.0773 20.0921 90.0773 21.212Z" fill="#9CA3AF"/>
<path d="M110.859 23.9684C110.468 24.5447 109.921 24.9769 109.218 25.265C108.52 25.5477 107.705 25.6891 106.774 25.6891C105.833 25.6891 104.998 25.4635 104.268 25.0122C103.538 24.5556 102.972 23.9086 102.57 23.0714C102.174 22.2341 101.97 21.2637 101.96 20.16V19.1244C101.96 17.3357 102.364 15.9494 103.173 14.9653C103.988 13.9813 105.13 13.4893 106.6 13.4893C107.806 13.4893 108.776 13.8073 109.511 14.4434C110.246 15.0741 110.696 15.9711 110.859 17.1346H109.337C109.051 15.5634 108.141 14.7778 106.608 14.7778C105.587 14.7778 104.813 15.1475 104.284 15.8869C103.76 16.6208 103.496 17.6864 103.491 19.0836V20.054C103.491 21.386 103.787 22.4461 104.379 23.2345C104.971 24.0173 105.772 24.4088 106.782 24.4088C107.353 24.4088 107.853 24.3435 108.282 24.213C108.71 24.0826 109.064 23.8624 109.344 23.5525V20.8858H106.671V19.6137H110.859V23.9684Z" fill="#9CA3AF"/>
<path d="M117.324 18.0561C117.102 18.018 116.861 17.999 116.602 17.999C115.64 17.999 114.987 18.4203 114.643 19.263V25.526H113.176V16.7023H114.603L114.627 17.7217C115.108 16.9334 115.791 16.5392 116.674 16.5392C116.959 16.5392 117.176 16.5773 117.324 16.6534V18.0561Z" fill="#9CA3AF"/>
<path d="M118.133 21.0326C118.133 20.1682 118.297 19.3908 118.625 18.7003C118.958 18.0099 119.418 17.4771 120.005 17.1019C120.598 16.7268 121.272 16.5392 122.028 16.5392C123.197 16.5392 124.141 16.9551 124.86 17.787C125.584 18.6188 125.946 19.7251 125.946 21.106V21.212C125.946 22.071 125.785 22.843 125.463 23.528C125.145 24.2076 124.688 24.7377 124.09 25.1182C123.498 25.4988 122.816 25.6891 122.044 25.6891C120.88 25.6891 119.937 25.2732 119.212 24.4414C118.493 23.6096 118.133 22.5087 118.133 21.1386V21.0326ZM119.609 21.212C119.609 22.1906 119.828 22.9762 120.267 23.5688C120.711 24.1614 121.303 24.4577 122.044 24.4577C122.789 24.4577 123.382 24.1587 123.821 23.5607C124.26 22.9572 124.479 22.1145 124.479 21.0326C124.479 20.0649 124.254 19.282 123.805 18.684C123.361 18.0805 122.768 17.7788 122.028 17.7788C121.303 17.7788 120.719 18.0751 120.275 18.6677C119.831 19.2603 119.609 20.1084 119.609 21.212Z" fill="#9CA3AF"/>
<path d="M133.085 24.6534C132.514 25.3439 131.676 25.6891 130.571 25.6891C129.656 25.6891 128.958 25.4173 128.477 24.8736C128.001 24.3245 127.76 23.5144 127.755 22.4434V16.7023H129.222V22.4026C129.222 23.7401 129.751 24.4088 130.809 24.4088C131.93 24.4088 132.676 23.9793 133.046 23.1203V16.7023H134.513V25.526H133.117L133.085 24.6534Z" fill="#9CA3AF"/>
<path d="M144 21.212C144 22.5549 143.701 23.6368 143.104 24.4577C142.506 25.2786 141.697 25.6891 140.676 25.6891C139.635 25.6891 138.815 25.3493 138.217 24.6697V28.9185H136.75V16.7023H138.091L138.162 17.6809C138.759 16.9198 139.59 16.5392 140.653 16.5392C141.684 16.5392 142.498 16.9388 143.096 17.738C143.699 18.5372 144 19.649 144 21.0734V21.212ZM142.533 21.0408C142.533 20.0459 142.326 19.2603 141.914 18.684C141.501 18.1077 140.936 17.8196 140.216 17.8196C139.328 17.8196 138.662 18.2246 138.217 19.0347V23.2508C138.656 24.0554 139.328 24.4577 140.232 24.4577C140.936 24.4577 141.493 24.1723 141.906 23.6014C142.324 23.0251 142.533 22.1716 142.533 21.0408Z" fill="#9CA3AF"/>
</svg>
