<svg width="257" height="43" viewBox="0 0 257 43" fill="none" xmlns="http://www.w3.org/2000/svg">
<path d="M7.16592 42.0992C7.20281 40.9358 7.6909 39.8324 8.5269 39.0225C9.36289 38.2126 10.4812 37.7597 11.6452 37.7597C12.8091 37.7597 13.9275 38.2126 14.7635 39.0225C15.5995 39.8324 16.0875 40.9358 16.1244 42.0992V43H23.2904V8.95852H19.6871V5.29224C20.9422 5.0854 22.0831 4.44004 22.9071 3.47097C23.731 2.5019 24.1844 1.27197 24.1867 -3.79911e-07C22.9172 0.000303618 21.6888 0.450059 20.7193 1.26955C19.7497 2.08903 19.1017 3.22532 18.8899 4.47701H18.7278C18.5178 3.2253 17.8709 2.08858 16.9019 1.26887C15.9329 0.449161 14.7047 -0.000432596 13.4355 -3.79911e-07C13.436 1.26894 13.8859 2.4967 14.7055 3.46549C15.525 4.43427 16.6612 5.08146 17.9125 5.29224V8.95852H6.26961V5.29224C7.52093 5.08146 8.65713 4.43427 9.47669 3.46549C10.2962 2.4967 10.7462 1.26894 10.7466 -3.79911e-07C9.47768 0.000468401 8.24992 0.450384 7.28113 1.26994C6.31235 2.08949 5.66516 3.2257 5.45438 4.47701H5.29224C5.08146 3.2257 4.43427 2.08949 3.46549 1.26994C2.4967 0.450384 1.26894 0.000468401 0 -3.79911e-07C0.000468781 1.26894 0.450384 2.4967 1.26994 3.46549C2.08949 4.43427 3.2257 5.08146 4.47701 5.29224V8.95852H0V42.9955H7.16592V42.0992ZM14.3318 12.5392H18.8088V17.0433H14.3318V12.5392ZM14.3318 20.6014H18.8088V25.0785H14.3318V20.6014ZM14.3318 28.6637H18.8088V33.1407H14.3318V28.6637ZM4.47701 12.5392H8.98104V17.0433H4.47701V12.5392ZM4.47701 20.6014H8.98104V25.0785H4.47701V20.6014ZM4.47701 28.6637H8.98104V33.1407H4.47701V28.6637Z" fill="#9CA3AF"/>
<path d="M35.7969 29V14.7227H38.8242V29H35.7969ZM48.3848 17.877C49.5501 17.877 50.4876 18.196 51.1973 18.834C51.9069 19.4655 52.2617 20.4811 52.2617 21.8809V29H49.2832V22.623C49.2832 21.8418 49.14 21.2526 48.8535 20.8555C48.5736 20.4583 48.1309 20.2598 47.5254 20.2598C46.6139 20.2598 45.9922 20.569 45.6602 21.1875C45.3281 21.806 45.1621 22.6979 45.1621 23.8633V29H42.1836V18.082H44.459L44.8594 19.4785H45.0254C45.2598 19.1009 45.5495 18.7949 45.8945 18.5605C46.2461 18.3262 46.6335 18.1536 47.0566 18.043C47.4863 17.9323 47.929 17.877 48.3848 17.877ZM61.5293 17.877C62.6947 17.877 63.6322 18.196 64.3418 18.834C65.0514 19.4655 65.4062 20.4811 65.4062 21.8809V29H62.4277V22.623C62.4277 21.8418 62.2845 21.2526 61.998 20.8555C61.7181 20.4583 61.2754 20.2598 60.6699 20.2598C59.7585 20.2598 59.1367 20.569 58.8047 21.1875C58.4727 21.806 58.3066 22.6979 58.3066 23.8633V29H55.3281V18.082H57.6035L58.0039 19.4785H58.1699C58.4043 19.1009 58.694 18.7949 59.0391 18.5605C59.3906 18.3262 59.778 18.1536 60.2012 18.043C60.6309 17.9323 61.0736 17.877 61.5293 17.877ZM78.3945 23.5215C78.3945 24.4329 78.2708 25.2402 78.0234 25.9434C77.7826 26.6465 77.4277 27.2422 76.959 27.7305C76.4967 28.2122 75.9368 28.5768 75.2793 28.8242C74.6283 29.0716 73.8926 29.1953 73.0723 29.1953C72.304 29.1953 71.5977 29.0716 70.9531 28.8242C70.3151 28.5768 69.7585 28.2122 69.2832 27.7305C68.8145 27.2422 68.4499 26.6465 68.1895 25.9434C67.9355 25.2402 67.8086 24.4329 67.8086 23.5215C67.8086 22.3105 68.0234 21.2852 68.4531 20.4453C68.8828 19.6055 69.4948 18.9674 70.2891 18.5312C71.0833 18.0951 72.0306 17.877 73.1309 17.877C74.153 17.877 75.0579 18.0951 75.8457 18.5312C76.64 18.9674 77.2617 19.6055 77.7109 20.4453C78.1667 21.2852 78.3945 22.3105 78.3945 23.5215ZM70.8457 23.5215C70.8457 24.2376 70.9238 24.8398 71.0801 25.3281C71.2363 25.8164 71.4805 26.1842 71.8125 26.4316C72.1445 26.679 72.5775 26.8027 73.1113 26.8027C73.6387 26.8027 74.0651 26.679 74.3906 26.4316C74.7227 26.1842 74.9635 25.8164 75.1133 25.3281C75.2695 24.8398 75.3477 24.2376 75.3477 23.5215C75.3477 22.7988 75.2695 22.1999 75.1133 21.7246C74.9635 21.2428 74.7227 20.8815 74.3906 20.6406C74.0586 20.3997 73.6257 20.2793 73.0918 20.2793C72.304 20.2793 71.7311 20.5495 71.373 21.0898C71.0215 21.6302 70.8457 22.4408 70.8457 23.5215ZM83.4531 29L79.293 18.082H82.4082L84.5176 24.3027C84.6348 24.6673 84.7259 25.0514 84.791 25.4551C84.8626 25.8587 84.9115 26.2201 84.9375 26.5391H85.0156C85.0352 26.194 85.0807 25.8262 85.1523 25.4355C85.2305 25.0449 85.3314 24.6673 85.4551 24.3027L87.5547 18.082H90.6699L86.5098 29H83.4531ZM96.7148 17.8574C98.1797 17.8574 99.3027 18.1764 100.084 18.8145C100.865 19.4525 101.256 20.4225 101.256 21.7246V29H99.1758L98.5996 27.5156H98.5215C98.209 27.9062 97.89 28.2253 97.5645 28.4727C97.2389 28.7201 96.8646 28.9023 96.4414 29.0195C96.0182 29.1367 95.5039 29.1953 94.8984 29.1953C94.2539 29.1953 93.6745 29.0716 93.1602 28.8242C92.6523 28.5768 92.252 28.1992 91.959 27.6914C91.666 27.1771 91.5195 26.526 91.5195 25.7383C91.5195 24.5794 91.9264 23.7266 92.7402 23.1797C93.554 22.6263 94.7747 22.3203 96.4023 22.2617L98.2969 22.2031V21.7246C98.2969 21.1517 98.1471 20.7318 97.8477 20.4648C97.5482 20.1979 97.1315 20.0645 96.5977 20.0645C96.0703 20.0645 95.5527 20.1393 95.0449 20.2891C94.5371 20.4388 94.0293 20.6276 93.5215 20.8555L92.5352 18.8438C93.1146 18.5378 93.7624 18.2969 94.4785 18.1211C95.2012 17.9453 95.9466 17.8574 96.7148 17.8574ZM98.2969 23.9414L97.1445 23.9805C96.181 24.0065 95.5104 24.179 95.1328 24.498C94.7617 24.8171 94.5762 25.237 94.5762 25.7578C94.5762 26.2135 94.7096 26.5391 94.9766 26.7344C95.2435 26.9232 95.5918 27.0176 96.0215 27.0176C96.6595 27.0176 97.1966 26.8288 97.6328 26.4512C98.0755 26.0736 98.2969 25.5365 98.2969 24.8398V23.9414ZM108.932 26.8223C109.257 26.8223 109.573 26.7897 109.879 26.7246C110.191 26.6595 110.501 26.5781 110.807 26.4805V28.6973C110.488 28.8405 110.09 28.9577 109.615 29.0488C109.146 29.1465 108.632 29.1953 108.072 29.1953C107.421 29.1953 106.835 29.0911 106.314 28.8828C105.8 28.668 105.393 28.3001 105.094 27.7793C104.801 27.252 104.654 26.5195 104.654 25.582V20.3184H103.229V19.0586L104.869 18.0625L105.729 15.7578H107.633V18.082H110.689V20.3184H107.633V25.582C107.633 25.9987 107.75 26.3112 107.984 26.5195C108.225 26.7214 108.541 26.8223 108.932 26.8223ZM116.002 18.082V29H113.023V18.082H116.002ZM114.518 13.8047C114.96 13.8047 115.341 13.9089 115.66 14.1172C115.979 14.319 116.139 14.6999 116.139 15.2598C116.139 15.8132 115.979 16.1973 115.66 16.4121C115.341 16.6204 114.96 16.7246 114.518 16.7246C114.068 16.7246 113.684 16.6204 113.365 16.4121C113.053 16.1973 112.896 15.8132 112.896 15.2598C112.896 14.6999 113.053 14.319 113.365 14.1172C113.684 13.9089 114.068 13.8047 114.518 13.8047ZM121.734 29L117.574 18.082H120.689L122.799 24.3027C122.916 24.6673 123.007 25.0514 123.072 25.4551C123.144 25.8587 123.193 26.2201 123.219 26.5391H123.297C123.316 26.194 123.362 25.8262 123.434 25.4355C123.512 25.0449 123.613 24.6673 123.736 24.3027L125.836 18.082H128.951L124.791 29H121.734ZM135.025 17.877C136.035 17.877 136.904 18.0723 137.633 18.4629C138.362 18.847 138.925 19.4069 139.322 20.1426C139.719 20.8783 139.918 21.7767 139.918 22.8379V24.2832H132.877C132.91 25.123 133.16 25.7839 133.629 26.2656C134.104 26.7409 134.762 26.9785 135.602 26.9785C136.298 26.9785 136.936 26.9069 137.516 26.7637C138.095 26.6204 138.691 26.4056 139.303 26.1191V28.4238C138.762 28.6908 138.196 28.8861 137.604 29.0098C137.018 29.1335 136.305 29.1953 135.465 29.1953C134.371 29.1953 133.401 28.9935 132.555 28.5898C131.715 28.1862 131.054 27.571 130.572 26.7441C130.097 25.9173 129.859 24.8757 129.859 23.6191C129.859 22.3431 130.074 21.2819 130.504 20.4355C130.94 19.5827 131.546 18.9447 132.32 18.5215C133.095 18.0918 133.997 17.877 135.025 17.877ZM135.045 19.9961C134.465 19.9961 133.984 20.1816 133.6 20.5527C133.222 20.9238 133.004 21.5065 132.945 22.3008H137.125C137.118 21.8581 137.037 21.4642 136.881 21.1191C136.731 20.7741 136.503 20.5007 136.197 20.2988C135.898 20.097 135.514 19.9961 135.045 19.9961ZM147.77 29V14.7227H150.797V26.5H156.588V29H147.77ZM163.316 17.8574C164.781 17.8574 165.904 18.1764 166.686 18.8145C167.467 19.4525 167.857 20.4225 167.857 21.7246V29H165.777L165.201 27.5156H165.123C164.811 27.9062 164.492 28.2253 164.166 28.4727C163.84 28.7201 163.466 28.9023 163.043 29.0195C162.62 29.1367 162.105 29.1953 161.5 29.1953C160.855 29.1953 160.276 29.0716 159.762 28.8242C159.254 28.5768 158.854 28.1992 158.561 27.6914C158.268 27.1771 158.121 26.526 158.121 25.7383C158.121 24.5794 158.528 23.7266 159.342 23.1797C160.156 22.6263 161.376 22.3203 163.004 22.2617L164.898 22.2031V21.7246C164.898 21.1517 164.749 20.7318 164.449 20.4648C164.15 20.1979 163.733 20.0645 163.199 20.0645C162.672 20.0645 162.154 20.1393 161.646 20.2891C161.139 20.4388 160.631 20.6276 160.123 20.8555L159.137 18.8438C159.716 18.5378 160.364 18.2969 161.08 18.1211C161.803 17.9453 162.548 17.8574 163.316 17.8574ZM164.898 23.9414L163.746 23.9805C162.783 24.0065 162.112 24.179 161.734 24.498C161.363 24.8171 161.178 25.237 161.178 25.7578C161.178 26.2135 161.311 26.5391 161.578 26.7344C161.845 26.9232 162.193 27.0176 162.623 27.0176C163.261 27.0176 163.798 26.8288 164.234 26.4512C164.677 26.0736 164.898 25.5365 164.898 24.8398V23.9414ZM177.135 17.877C178.3 17.877 179.238 18.196 179.947 18.834C180.657 19.4655 181.012 20.4811 181.012 21.8809V29H178.033V22.623C178.033 21.8418 177.89 21.2526 177.604 20.8555C177.324 20.4583 176.881 20.2598 176.275 20.2598C175.364 20.2598 174.742 20.569 174.41 21.1875C174.078 21.806 173.912 22.6979 173.912 23.8633V29H170.934V18.082H173.209L173.609 19.4785H173.775C174.01 19.1009 174.299 18.7949 174.645 18.5605C174.996 18.3262 175.383 18.1536 175.807 18.043C176.236 17.9323 176.679 17.877 177.135 17.877ZM187.535 29.1953C186.318 29.1953 185.325 28.7201 184.557 27.7695C183.795 26.8125 183.414 25.4095 183.414 23.5605C183.414 21.6921 183.801 20.2793 184.576 19.3223C185.351 18.3587 186.363 17.877 187.613 17.877C188.134 17.877 188.593 17.9486 188.99 18.0918C189.387 18.235 189.729 18.4271 190.016 18.668C190.309 18.9089 190.556 19.179 190.758 19.4785H190.855C190.816 19.2702 190.768 18.9642 190.709 18.5605C190.657 18.1504 190.631 17.7305 190.631 17.3008V13.8047H193.619V29H191.334L190.758 27.584H190.631C190.442 27.8835 190.204 28.1569 189.918 28.4043C189.638 28.6452 189.303 28.8372 188.912 28.9805C188.521 29.1237 188.062 29.1953 187.535 29.1953ZM188.58 26.8223C189.394 26.8223 189.967 26.5814 190.299 26.0996C190.637 25.6113 190.816 24.8789 190.836 23.9023V23.5801C190.836 22.5189 190.673 21.7083 190.348 21.1484C190.022 20.582 189.417 20.2988 188.531 20.2988C187.874 20.2988 187.359 20.582 186.988 21.1484C186.617 21.7148 186.432 22.5319 186.432 23.5996C186.432 24.6673 186.617 25.4714 186.988 26.0117C187.366 26.5521 187.896 26.8223 188.58 26.8223ZM202.164 29V14.7227H205.191V29H202.164ZM214.752 17.877C215.917 17.877 216.855 18.196 217.564 18.834C218.274 19.4655 218.629 20.4811 218.629 21.8809V29H215.65V22.623C215.65 21.8418 215.507 21.2526 215.221 20.8555C214.941 20.4583 214.498 20.2598 213.893 20.2598C212.981 20.2598 212.359 20.569 212.027 21.1875C211.695 21.806 211.529 22.6979 211.529 23.8633V29H208.551V18.082H210.826L211.227 19.4785H211.393C211.627 19.1009 211.917 18.7949 212.262 18.5605C212.613 18.3262 213.001 18.1536 213.424 18.043C213.854 17.9323 214.296 17.877 214.752 17.877ZM225.152 29.1953C223.935 29.1953 222.942 28.7201 222.174 27.7695C221.412 26.8125 221.031 25.4095 221.031 23.5605C221.031 21.6921 221.419 20.2793 222.193 19.3223C222.968 18.3587 223.98 17.877 225.23 17.877C225.751 17.877 226.21 17.9486 226.607 18.0918C227.005 18.235 227.346 18.4271 227.633 18.668C227.926 18.9089 228.173 19.179 228.375 19.4785H228.473C228.434 19.2702 228.385 18.9642 228.326 18.5605C228.274 18.1504 228.248 17.7305 228.248 17.3008V13.8047H231.236V29H228.951L228.375 27.584H228.248C228.059 27.8835 227.822 28.1569 227.535 28.4043C227.255 28.6452 226.92 28.8372 226.529 28.9805C226.139 29.1237 225.68 29.1953 225.152 29.1953ZM226.197 26.8223C227.011 26.8223 227.584 26.5814 227.916 26.0996C228.255 25.6113 228.434 24.8789 228.453 23.9023V23.5801C228.453 22.5189 228.29 21.7083 227.965 21.1484C227.639 20.582 227.034 20.2988 226.148 20.2988C225.491 20.2988 224.977 20.582 224.605 21.1484C224.234 21.7148 224.049 22.5319 224.049 23.5996C224.049 24.6673 224.234 25.4714 224.605 26.0117C224.983 26.5521 225.514 26.8223 226.197 26.8223ZM238.854 17.877C239.863 17.877 240.732 18.0723 241.461 18.4629C242.19 18.847 242.753 19.4069 243.15 20.1426C243.548 20.8783 243.746 21.7767 243.746 22.8379V24.2832H236.705C236.738 25.123 236.988 25.7839 237.457 26.2656C237.932 26.7409 238.59 26.9785 239.43 26.9785C240.126 26.9785 240.764 26.9069 241.344 26.7637C241.923 26.6204 242.519 26.4056 243.131 26.1191V28.4238C242.59 28.6908 242.024 28.8861 241.432 29.0098C240.846 29.1335 240.133 29.1953 239.293 29.1953C238.199 29.1953 237.229 28.9935 236.383 28.5898C235.543 28.1862 234.882 27.571 234.4 26.7441C233.925 25.9173 233.688 24.8757 233.688 23.6191C233.688 22.3431 233.902 21.2819 234.332 20.4355C234.768 19.5827 235.374 18.9447 236.148 18.5215C236.923 18.0918 237.825 17.877 238.854 17.877ZM238.873 19.9961C238.294 19.9961 237.812 20.1816 237.428 20.5527C237.05 20.9238 236.832 21.5065 236.773 22.3008H240.953C240.947 21.8581 240.865 21.4642 240.709 21.1191C240.559 20.7741 240.331 20.5007 240.025 20.2988C239.726 20.097 239.342 19.9961 238.873 19.9961ZM248.404 23.4238L244.889 18.082H248.268L250.387 21.5586L252.525 18.082H255.904L252.35 23.4238L256.07 29H252.682L250.387 25.2598L248.082 29H244.703L248.404 23.4238Z" fill="#9CA3AF"/>
</svg>
