<svg width="196" height="46" viewBox="0 0 196 46" fill="none" xmlns="http://www.w3.org/2000/svg">
<path fill-rule="evenodd" clip-rule="evenodd" d="M35.7438 4.10789C32.0549 1.51934 27.5612 0 22.7125 0C13.8834 0 6.23087 5.03787 2.47284 12.3959C7.80195 16.288 12.9332 19.5353 15.2197 19.5353C18.0341 19.5353 27.1883 11.8735 35.7438 4.10789ZM0.537972 17.7761C0.185737 19.3652 0 21.0172 0 22.7125V23.2875C0 35.8312 10.1687 46 22.7125 46C35.2562 46 45.425 35.8312 45.425 23.2875V22.7125C45.425 16.7695 43.1425 11.3597 39.4062 7.31176C30.8875 19.1949 20.7912 32.2486 17.2865 32.6431C14.2472 32.9852 7.17913 25.6505 0.537972 17.7761Z" fill="#9CA3AF"/>
<path d="M58.6941 16.6699H61.4785L64.6427 26.5049L67.8069 16.6699H70.5914L65.7721 30.8058H63.5133L58.6941 16.6699ZM57 16.6699H59.8818L60.4173 27.5049V30.8058H57V16.6699ZM69.4036 16.6699H72.2952V30.8058H68.8681V27.5049L69.4036 16.6699Z" fill="#9CA3AF"/>
<path d="M79.8016 28.165V23.835C79.8016 23.5372 79.7594 23.2816 79.675 23.068C79.5906 22.8544 79.4576 22.6893 79.2758 22.5728C79.0941 22.4498 78.8507 22.3883 78.5456 22.3883C78.299 22.3883 78.088 22.4304 77.9128 22.5146C77.7376 22.5987 77.6045 22.7249 77.5136 22.8932C77.4228 23.0615 77.3773 23.2751 77.3773 23.534H74.0963C74.0963 23.0485 74.2034 22.5987 74.4176 22.1845C74.6383 21.7638 74.9498 21.3981 75.3522 21.0874C75.7612 20.7767 76.248 20.5372 76.8126 20.3689C77.3838 20.1942 78.0199 20.1068 78.7209 20.1068C79.5582 20.1068 80.3046 20.246 80.9601 20.5243C81.6222 20.8026 82.1447 21.2201 82.5276 21.7767C82.9106 22.3269 83.1021 23.0194 83.1021 23.8544V28.1553C83.1021 28.8414 83.141 29.3625 83.2189 29.7184C83.2968 30.068 83.4071 30.3754 83.5499 30.6408V30.8058H80.2592C80.1034 30.4822 79.9866 30.0874 79.9087 29.6214C79.8373 29.1489 79.8016 28.6634 79.8016 28.165ZM80.2007 24.3884L80.2202 26.1359H78.7696C78.4645 26.1359 78.2049 26.178 77.9907 26.2621C77.783 26.3463 77.6142 26.4628 77.4844 26.6117C77.3611 26.754 77.2702 26.9159 77.2118 27.0971C77.1599 27.2783 77.1339 27.4693 77.1339 27.6699C77.1339 27.8641 77.1794 28.0388 77.2702 28.1942C77.3676 28.343 77.4974 28.4595 77.6597 28.5437C77.8219 28.6278 78.0037 28.6699 78.2049 28.6699C78.5684 28.6699 78.8767 28.6019 79.1298 28.466C79.3894 28.3236 79.5874 28.1521 79.7237 27.9515C79.86 27.7508 79.9281 27.5631 79.9281 27.3884L80.6486 28.7282C80.5188 28.9871 80.3695 29.2492 80.2007 29.5146C80.0385 29.7799 79.834 30.0259 79.5874 30.2524C79.3472 30.4725 79.0519 30.6537 78.7014 30.7961C78.3509 30.932 77.9258 31 77.426 31C76.7769 31 76.1798 30.8673 75.6346 30.6019C75.0959 30.3366 74.6642 29.9676 74.3397 29.4951C74.0152 29.0162 73.8529 28.466 73.8529 27.8447C73.8529 27.301 73.9503 26.8155 74.145 26.3884C74.3462 25.9612 74.648 25.5987 75.0504 25.301C75.4528 25.0032 75.9656 24.7767 76.5887 24.6214C77.2118 24.466 77.9453 24.3884 78.789 24.3884H80.2007Z" fill="#9CA3AF"/>
<path d="M90.4722 20.301V22.5728H84.1243V20.301H90.4722ZM85.4581 17.6893H88.7392V27.3786C88.7392 27.657 88.7716 27.8738 88.8365 28.0291C88.9014 28.178 89.0118 28.2848 89.1675 28.3495C89.3298 28.4078 89.544 28.4369 89.8101 28.4369C89.9983 28.4369 90.1541 28.4337 90.2774 28.4272C90.4008 28.4142 90.5176 28.3981 90.6279 28.3786V30.7184C90.3488 30.8091 90.0568 30.877 89.7517 30.9223C89.4466 30.9741 89.1221 31 88.7781 31C88.0771 31 87.4767 30.89 86.977 30.6699C86.4837 30.4498 86.1072 30.1036 85.8476 29.6311C85.588 29.1586 85.4581 28.5437 85.4581 27.7864V17.6893Z" fill="#9CA3AF"/>
<path d="M96.8784 31C96.0216 31 95.2557 30.8673 94.5807 30.6019C93.9057 30.3301 93.3345 29.9579 92.8672 29.4854C92.4064 29.0129 92.0526 28.4693 91.806 27.8544C91.5658 27.2395 91.4458 26.589 91.4458 25.9029V25.534C91.4458 24.7638 91.5528 24.0518 91.767 23.3981C91.9812 22.7379 92.2993 22.1618 92.7212 21.6699C93.143 21.178 93.672 20.7961 94.3081 20.5243C94.9442 20.246 95.6841 20.1068 96.5279 20.1068C97.2743 20.1068 97.9429 20.2265 98.5335 20.466C99.1242 20.7055 99.6239 21.0485 100.033 21.4951C100.448 21.9417 100.763 22.4822 100.977 23.1165C101.198 23.7508 101.308 24.4628 101.308 25.2524V26.5825H92.7017V24.534H98.1051V24.2816C98.1116 23.932 98.05 23.6343 97.9202 23.3884C97.7968 23.1424 97.6151 22.9547 97.3749 22.8252C97.1348 22.6958 96.8427 22.6311 96.4987 22.6311C96.1417 22.6311 95.8464 22.7087 95.6127 22.8641C95.3856 23.0194 95.2071 23.233 95.0773 23.5049C94.9539 23.7702 94.8663 24.0777 94.8144 24.4272C94.7625 24.7767 94.7365 25.1456 94.7365 25.534V25.9029C94.7365 26.2913 94.7884 26.644 94.8923 26.9612C95.0026 27.2783 95.1584 27.5502 95.3596 27.7767C95.5673 27.9968 95.8139 28.1683 96.0995 28.2913C96.3916 28.4142 96.7226 28.4757 97.0926 28.4757C97.5404 28.4757 97.9818 28.3916 98.4167 28.2233C98.8516 28.055 99.2248 27.7767 99.5363 27.3884L101.026 29.1553C100.812 29.4595 100.507 29.754 100.111 30.0388C99.7213 30.3236 99.254 30.5566 98.7088 30.7379C98.1635 30.9126 97.5534 31 96.8784 31Z" fill="#9CA3AF"/>
<path d="M108.162 27.8544C108.162 27.6731 108.101 27.5178 107.977 27.3884C107.861 27.2524 107.653 27.1295 107.354 27.0194C107.056 26.9029 106.637 26.7864 106.098 26.6699C105.586 26.5599 105.102 26.4142 104.648 26.233C104.2 26.0518 103.807 25.8317 103.47 25.5728C103.132 25.3139 102.866 25.0065 102.671 24.6505C102.483 24.2945 102.389 23.8867 102.389 23.4272C102.389 22.9806 102.483 22.5599 102.671 22.165C102.866 21.7638 103.148 21.411 103.518 21.1068C103.895 20.7961 104.352 20.5534 104.891 20.3786C105.43 20.1974 106.043 20.1068 106.731 20.1068C107.679 20.1068 108.497 20.2524 109.185 20.5437C109.873 20.8285 110.402 21.2298 110.772 21.7476C111.148 22.2589 111.336 22.8511 111.336 23.5243H108.055C108.055 23.2589 108.01 23.0324 107.919 22.8447C107.835 22.657 107.695 22.5146 107.5 22.4175C107.306 22.3139 107.046 22.2621 106.721 22.2621C106.494 22.2621 106.287 22.3042 106.098 22.3883C105.917 22.4725 105.771 22.589 105.66 22.7379C105.55 22.8867 105.495 23.0615 105.495 23.2621C105.495 23.4045 105.527 23.534 105.592 23.6505C105.663 23.7605 105.771 23.8641 105.913 23.9612C106.056 24.0518 106.238 24.1359 106.459 24.2136C106.679 24.2848 106.945 24.3495 107.257 24.4078C107.964 24.5372 108.626 24.7217 109.243 24.9612C109.86 25.2006 110.359 25.5405 110.742 25.9806C111.132 26.4207 111.327 27.0129 111.327 27.7573C111.327 28.2233 111.219 28.6537 111.005 29.0485C110.791 29.4369 110.483 29.7799 110.08 30.0777C109.678 30.3689 109.194 30.5955 108.63 30.7573C108.065 30.9191 107.429 31 106.721 31C105.715 31 104.865 30.822 104.171 30.466C103.476 30.1036 102.95 29.6505 102.593 29.1068C102.243 28.5566 102.068 28 102.068 27.4369H105.125C105.138 27.7605 105.216 28.0259 105.358 28.233C105.508 28.4401 105.706 28.5922 105.952 28.6893C106.199 28.7864 106.485 28.835 106.809 28.835C107.108 28.835 107.354 28.7929 107.549 28.7087C107.75 28.6246 107.903 28.5113 108.007 28.3689C108.11 28.2201 108.162 28.0485 108.162 27.8544Z" fill="#9CA3AF"/>
<path d="M119.68 16.6699H122.464L125.629 26.5049L128.793 16.6699H131.577L126.758 30.8058H124.499L119.68 16.6699ZM117.986 16.6699H120.868L121.403 27.5049V30.8058H117.986V16.6699ZM130.39 16.6699H133.281V30.8058H129.854V27.5049L130.39 16.6699Z" fill="#9CA3AF"/>
<path d="M134.907 25.6602V25.4563C134.907 24.6861 135.017 23.9773 135.238 23.3301C135.459 22.6764 135.783 22.11 136.212 21.6311C136.64 21.1521 137.169 20.7799 137.799 20.5146C138.428 20.2427 139.155 20.1068 139.979 20.1068C140.81 20.1068 141.54 20.2427 142.17 20.5146C142.806 20.7799 143.338 21.1521 143.767 21.6311C144.195 22.11 144.52 22.6764 144.74 23.3301C144.961 23.9773 145.071 24.6861 145.071 25.4563V25.6602C145.071 26.4239 144.961 27.1327 144.74 27.7864C144.52 28.4337 144.195 29 143.767 29.4854C143.338 29.9644 142.809 30.3366 142.18 30.6019C141.55 30.8673 140.823 31 139.999 31C139.175 31 138.444 30.8673 137.808 30.6019C137.172 30.3366 136.64 29.9644 136.212 29.4854C135.783 29 135.459 28.4337 135.238 27.7864C135.017 27.1327 134.907 26.4239 134.907 25.6602ZM138.188 25.4563V25.6602C138.188 26.055 138.217 26.4239 138.276 26.767C138.334 27.11 138.431 27.411 138.568 27.6699C138.704 27.9223 138.889 28.1197 139.123 28.2621C139.356 28.4045 139.648 28.4757 139.999 28.4757C140.343 28.4757 140.628 28.4045 140.856 28.2621C141.089 28.1197 141.274 27.9223 141.411 27.6699C141.547 27.411 141.644 27.11 141.703 26.767C141.761 26.4239 141.79 26.055 141.79 25.6602V25.4563C141.79 25.0744 141.761 24.7152 141.703 24.3786C141.644 24.0356 141.547 23.7346 141.411 23.4757C141.274 23.2104 141.089 23.0032 140.856 22.8544C140.622 22.7055 140.33 22.6311 139.979 22.6311C139.635 22.6311 139.347 22.7055 139.113 22.8544C138.886 23.0032 138.704 23.2104 138.568 23.4757C138.431 23.7346 138.334 24.0356 138.276 24.3786C138.217 24.7152 138.188 25.0744 138.188 25.4563Z" fill="#9CA3AF"/>
<path d="M152.081 20.301V22.5728H145.733V20.301H152.081ZM147.067 17.6893H150.348V27.3786C150.348 27.657 150.381 27.8738 150.446 28.0291C150.51 28.178 150.621 28.2848 150.777 28.3495C150.939 28.4078 151.153 28.4369 151.419 28.4369C151.607 28.4369 151.763 28.4337 151.886 28.4272C152.01 28.4142 152.127 28.3981 152.237 28.3786V30.7184C151.958 30.8091 151.666 30.877 151.361 30.9223C151.056 30.9741 150.731 31 150.387 31C149.686 31 149.086 30.89 148.586 30.6699C148.093 30.4498 147.716 30.1036 147.457 29.6311C147.197 29.1586 147.067 28.5437 147.067 27.7864V17.6893Z" fill="#9CA3AF"/>
<path d="M156.852 20.301V30.8058H153.561V20.301H156.852ZM153.366 17.5922C153.366 17.1262 153.535 16.7443 153.873 16.4466C154.21 16.1489 154.648 16 155.187 16C155.726 16 156.164 16.1489 156.501 16.4466C156.839 16.7443 157.008 17.1262 157.008 17.5922C157.008 18.0583 156.839 18.4401 156.501 18.7379C156.164 19.0356 155.726 19.1845 155.187 19.1845C154.648 19.1845 154.21 19.0356 153.873 18.7379C153.535 18.4401 153.366 18.0583 153.366 17.5922Z" fill="#9CA3AF"/>
<path d="M162.674 28.5631L164.748 20.301H168.204L164.757 30.8058H162.713L162.674 28.5631ZM161.447 20.301L163.492 28.5631L163.472 30.8058H161.418L157.981 20.301H161.447Z" fill="#9CA3AF"/>
<path d="M174.493 28.165V23.835C174.493 23.5372 174.451 23.2816 174.367 23.068C174.282 22.8544 174.149 22.6893 173.968 22.5728C173.786 22.4498 173.542 22.3883 173.237 22.3883C172.991 22.3883 172.78 22.4304 172.605 22.5146C172.429 22.5987 172.296 22.7249 172.205 22.8932C172.115 23.0615 172.069 23.2751 172.069 23.534H168.788C168.788 23.0485 168.895 22.5987 169.109 22.1845C169.33 21.7638 169.642 21.3981 170.044 21.0874C170.453 20.7767 170.94 20.5372 171.504 20.3689C172.076 20.1942 172.712 20.1068 173.413 20.1068C174.25 20.1068 174.996 20.246 175.652 20.5243C176.314 20.8026 176.836 21.2201 177.219 21.7767C177.602 22.3269 177.794 23.0194 177.794 23.8544V28.1553C177.794 28.8414 177.833 29.3625 177.911 29.7184C177.989 30.068 178.099 30.3754 178.242 30.6408V30.8058H174.951C174.795 30.4822 174.678 30.0874 174.6 29.6214C174.529 29.1489 174.493 28.6634 174.493 28.165ZM174.892 24.3884L174.912 26.1359H173.461C173.156 26.1359 172.897 26.178 172.682 26.2621C172.475 26.3463 172.306 26.4628 172.176 26.6117C172.053 26.754 171.962 26.9159 171.904 27.0971C171.852 27.2783 171.826 27.4693 171.826 27.6699C171.826 27.8641 171.871 28.0388 171.962 28.1942C172.059 28.343 172.189 28.4595 172.351 28.5437C172.514 28.6278 172.695 28.6699 172.897 28.6699C173.26 28.6699 173.568 28.6019 173.822 28.466C174.081 28.3236 174.279 28.1521 174.415 27.9515C174.552 27.7508 174.62 27.5631 174.62 27.3884L175.34 28.7282C175.211 28.9871 175.061 29.2492 174.892 29.5146C174.73 29.7799 174.526 30.0259 174.279 30.2524C174.039 30.4725 173.744 30.6537 173.393 30.7961C173.043 30.932 172.618 31 172.118 31C171.469 31 170.872 30.8673 170.326 30.6019C169.788 30.3366 169.356 29.9676 169.031 29.4951C168.707 29.0162 168.545 28.466 168.545 27.8447C168.545 27.301 168.642 26.8155 168.837 26.3884C169.038 25.9612 169.34 25.5987 169.742 25.301C170.145 25.0032 170.657 24.7767 171.28 24.6214C171.904 24.466 172.637 24.3884 173.481 24.3884H174.892Z" fill="#9CA3AF"/>
<path d="M185.164 20.301V22.5728H178.816V20.301H185.164ZM180.15 17.6893H183.431V27.3786C183.431 27.657 183.463 27.8738 183.528 28.0291C183.593 28.178 183.704 28.2848 183.859 28.3495C184.022 28.4078 184.236 28.4369 184.502 28.4369C184.69 28.4369 184.846 28.4337 184.969 28.4272C185.093 28.4142 185.209 28.3981 185.32 28.3786V30.7184C185.041 30.8091 184.748 30.877 184.443 30.9223C184.138 30.9741 183.814 31 183.47 31C182.769 31 182.168 30.89 181.669 30.6699C181.175 30.4498 180.799 30.1036 180.539 29.6311C180.28 29.1586 180.15 28.5437 180.15 27.7864V17.6893Z" fill="#9CA3AF"/>
<path d="M191.57 31C190.713 31 189.947 30.8673 189.272 30.6019C188.597 30.3301 188.026 29.9579 187.559 29.4854C187.098 29.0129 186.744 28.4693 186.498 27.8544C186.258 27.2395 186.137 26.589 186.137 25.9029V25.534C186.137 24.7638 186.245 24.0518 186.459 23.3981C186.673 22.7379 186.991 22.1618 187.413 21.6699C187.835 21.178 188.364 20.7961 189 20.5243C189.636 20.246 190.376 20.1068 191.22 20.1068C191.966 20.1068 192.635 20.2265 193.225 20.466C193.816 20.7055 194.316 21.0485 194.725 21.4951C195.14 21.9417 195.455 22.4822 195.669 23.1165C195.89 23.7508 196 24.4628 196 25.2524V26.5825H187.393V24.534H192.797V24.2816C192.803 23.932 192.742 23.6343 192.612 23.3884C192.489 23.1424 192.307 22.9547 192.067 22.8252C191.827 22.6958 191.534 22.6311 191.19 22.6311C190.833 22.6311 190.538 22.7087 190.304 22.8641C190.077 23.0194 189.899 23.233 189.769 23.5049C189.646 23.7702 189.558 24.0777 189.506 24.4272C189.454 24.7767 189.428 25.1456 189.428 25.534V25.9029C189.428 26.2913 189.48 26.644 189.584 26.9612C189.694 27.2783 189.85 27.5502 190.051 27.7767C190.259 27.9968 190.506 28.1683 190.791 28.2913C191.083 28.4142 191.414 28.4757 191.784 28.4757C192.232 28.4757 192.674 28.3916 193.108 28.2233C193.543 28.055 193.917 27.7767 194.228 27.3884L195.718 29.1553C195.503 29.4595 195.198 29.754 194.802 30.0388C194.413 30.3236 193.946 30.5566 193.4 30.7379C192.855 30.9126 192.245 31 191.57 31Z" fill="#9CA3AF"/>
</svg>
