<svg width="156" height="43" viewBox="0 0 156 43" fill="none" xmlns="http://www.w3.org/2000/svg">
<path d="M64.3494 21.3658C64.3494 19.4157 64.5444 17.9193 64.9344 16.8767C65.3245 15.8341 65.9808 15.0915 66.9034 14.649C67.8259 14.2065 69.1423 13.9852 70.8525 13.9852C72.5476 13.9852 73.8565 14.2065 74.7791 14.649C75.7016 15.0915 76.3579 15.8341 76.748 16.8767C77.138 17.9193 77.333 19.4157 77.333 21.3658C77.333 23.301 77.138 24.7899 76.748 25.8325C76.3579 26.8751 75.7016 27.6176 74.7791 28.0602C73.8565 28.5027 72.5476 28.724 70.8525 28.724C69.1423 28.724 67.8259 28.5027 66.9034 28.0602C65.9808 27.6176 65.3245 26.8751 64.9344 25.8325C64.5444 24.7899 64.3494 23.301 64.3494 21.3658ZM68.6023 25.3487H71.28C71.9551 25.3487 72.4238 25.2512 72.6864 25.0562C72.9489 24.8612 73.0802 24.5236 73.0802 24.0436V17.3605H70.4024C69.7274 17.3605 69.2586 17.458 68.996 17.653C68.7335 17.848 68.6023 18.1856 68.6023 18.6656V25.3487ZM85.9738 16.7979C87.0989 16.7979 87.999 16.9967 88.674 17.3942C89.3491 17.7918 89.8441 18.4256 90.1592 19.2957C90.4742 20.1657 90.6317 21.3208 90.6317 22.761C90.6317 24.2011 90.4479 25.3524 90.0804 26.215C89.7129 27.0776 89.1353 27.7077 88.3478 28.1052C87.5602 28.5027 86.5063 28.7015 85.1862 28.7015C84.0911 28.7015 83.1085 28.634 82.2385 28.499C81.3684 28.364 80.4758 28.1464 79.5607 27.8464V13.6702L83.5211 13.3551V17.2255C84.1511 16.9405 84.9687 16.7979 85.9738 16.7979ZM86.3788 25.1012V19.8132H84.4437C84.0836 19.8132 83.8399 19.8545 83.7123 19.937C83.5848 20.0195 83.5211 20.1807 83.5211 20.4208V25.6862H85.4788C85.8238 25.6862 86.0601 25.645 86.1876 25.5625C86.3151 25.48 86.3788 25.3262 86.3788 25.1012ZM92.3194 20.4883C92.3194 19.2132 92.7094 18.2793 93.4895 17.6868C94.2695 17.0942 95.4921 16.7979 97.1573 16.7979C98.7624 16.7979 100.293 16.963 101.748 17.293L101.275 20.0382C100.555 19.8432 99.67 19.7457 98.6199 19.7457C97.8248 19.7457 97.1423 19.8132 96.5722 19.9482V21.2083C98.0574 21.3733 99.2087 21.5984 100.026 21.8834C100.844 22.1684 101.429 22.5547 101.781 23.0422C102.134 23.5298 102.31 24.1711 102.31 24.9662C102.31 26.2863 101.879 27.2426 101.016 27.8352C100.154 28.4277 98.7699 28.724 96.8648 28.724C96.0397 28.724 95.2146 28.6602 94.3895 28.5327C93.5645 28.4052 92.8144 28.2214 92.1393 27.9814L92.6569 25.1012C93.767 25.5512 94.9746 25.7762 96.2797 25.7762C96.7447 25.7762 97.3373 25.7087 98.0574 25.5737V24.2686C96.4672 24.0886 95.2709 23.8673 94.4683 23.6048C93.6657 23.3423 93.1069 22.9747 92.7919 22.5022C92.4769 22.0297 92.3194 21.3583 92.3194 20.4883ZM109.803 25.7762C111.079 25.7762 112.406 25.5812 113.786 25.1912L114.281 27.9589C112.796 28.454 111.161 28.7015 109.376 28.7015C107.396 28.7015 105.971 28.2402 105.1 27.3176C104.23 26.395 103.795 24.8762 103.795 22.761C103.795 20.6608 104.242 19.1456 105.134 18.2156C106.027 17.2855 107.471 16.8204 109.466 16.8204C110.801 16.8204 111.832 16.9329 112.56 17.158C113.287 17.383 113.805 17.758 114.113 18.2831C114.42 18.8081 114.574 19.5582 114.574 20.5333C114.574 21.4934 114.379 22.2359 113.989 22.761C113.599 23.286 112.939 23.661 112.009 23.8861C111.079 24.1111 109.758 24.2236 108.048 24.2236V25.6412C108.468 25.7312 109.053 25.7762 109.803 25.7762ZM109.668 19.7457C109.053 19.7457 108.63 19.8132 108.397 19.9482C108.165 20.0832 108.048 20.3383 108.048 20.7133V22.1534H109.376C109.991 22.1534 110.415 22.0822 110.647 21.9396C110.88 21.7971 110.996 21.5309 110.996 21.1408V19.7457H109.668ZM118.939 17.1355L120.064 18.6881C121.069 17.713 122.164 17.083 123.35 16.7979L123.597 20.6458C123.207 20.7058 122.735 20.8445 122.179 21.0621C121.624 21.2796 121.212 21.4859 120.942 21.6809V28.3865H116.982V17.1355H118.939ZM123.845 17.1355H127.715L129.448 24.9437H129.673L131.428 17.1355H135.298L132.553 28.3865H126.59L123.845 17.1355ZM142.206 25.7762C143.481 25.7762 144.809 25.5812 146.189 25.1912L146.684 27.9589C145.199 28.454 143.564 28.7015 141.779 28.7015C139.799 28.7015 138.373 28.2402 137.503 27.3176C136.633 26.395 136.198 24.8762 136.198 22.761C136.198 20.6608 136.645 19.1456 137.537 18.2156C138.43 17.2855 139.874 16.8204 141.869 16.8204C143.204 16.8204 144.235 16.9329 144.963 17.158C145.69 17.383 146.208 17.758 146.515 18.2831C146.823 18.8081 146.977 19.5582 146.977 20.5333C146.977 21.4934 146.782 22.2359 146.392 22.761C146.002 23.286 145.342 23.661 144.411 23.8861C143.481 24.1111 142.161 24.2236 140.451 24.2236V25.6412C140.871 25.7312 141.456 25.7762 142.206 25.7762ZM142.071 19.7457C141.456 19.7457 141.032 19.8132 140.8 19.9482C140.567 20.0832 140.451 20.3383 140.451 20.7133V22.1534H141.779C142.394 22.1534 142.818 22.0822 143.05 21.9396C143.283 21.7971 143.399 21.5309 143.399 21.1408V19.7457H142.071ZM151.342 17.1355L152.467 18.6881C153.472 17.713 154.567 17.083 155.752 16.7979L156 20.6458C155.61 20.7058 155.137 20.8445 154.582 21.0621C154.027 21.2796 153.615 21.4859 153.345 21.6809V28.3865H149.384V17.1355H151.342Z" fill="#9CA3AF"/>
<path d="M38.1825 21.3033C38.1825 19.8766 38.6056 18.482 39.3982 17.2958C40.1908 16.1096 41.3173 15.185 42.6354 14.639C43.9535 14.0931 45.4038 13.9502 46.8031 14.2286C48.2023 14.5069 49.4876 15.1939 50.4964 16.2027C51.5052 17.2115 52.1922 18.4968 52.4705 19.896C52.7488 21.2953 52.606 22.7456 52.06 24.0637C51.5141 25.3817 50.5895 26.5083 49.4033 27.3009C48.2171 28.0935 46.8225 28.5166 45.3958 28.5166C43.4827 28.5166 41.648 27.7566 40.2952 26.4038C38.9425 25.0511 38.1825 23.2164 38.1825 21.3033ZM26.3046 14.09C28.2177 14.09 30.0524 14.8499 31.4052 16.2027C32.7579 17.5554 33.5179 19.3902 33.5179 21.3033C33.5179 23.2164 32.7579 25.0511 31.4052 26.4038C30.0524 27.7566 28.2177 28.5166 26.3046 28.5166V14.09Z" fill="#DDDDDD"/>
<path d="M0 21.3033C0 19.8766 0.423053 18.482 1.21566 17.2958C2.00827 16.1096 3.13483 15.185 4.45289 14.639C5.77095 14.0931 7.2213 13.9502 8.62055 14.2286C10.0198 14.5069 11.3051 15.1939 12.3139 16.2027C13.3227 17.2115 14.0097 18.4968 14.288 19.896C14.5663 21.2953 14.4235 22.7456 13.8775 24.0637C13.3316 25.3817 12.407 26.5083 11.2208 27.3009C10.0346 28.0935 8.63995 28.5166 7.2133 28.5166C5.30021 28.5166 3.46548 27.7566 2.11273 26.4038C0.75997 25.0511 0 23.2164 0 21.3033ZM26.3046 14.09C24.3915 14.09 22.5568 14.8499 21.204 16.2027C19.8513 17.5554 19.0913 19.3902 19.0913 21.3033C19.0913 23.2164 19.8513 25.0511 21.204 26.4038C22.5568 27.7566 24.3915 28.5166 26.3046 28.5166V14.09ZM26.304 0C25.8666 0.000317498 25.4391 0.130321 25.0756 0.373573C24.712 0.616825 24.4287 0.962404 24.2616 1.36662C24.0944 1.77084 24.0508 2.21556 24.1363 2.64454C24.2219 3.07352 24.4327 3.46751 24.7421 3.77671C25.0515 4.0859 25.4457 4.29642 25.8747 4.38164C26.3037 4.46686 26.7484 4.42296 27.1525 4.25549C27.5566 4.08802 27.902 3.8045 28.145 3.44077C28.388 3.07705 28.5177 2.64944 28.5177 2.21201C28.5167 1.62535 28.2832 1.06301 27.8682 0.648334C27.4532 0.233656 26.8907 0.000498476 26.304 0H26.304ZM26.304 38.1821C25.8664 38.1823 25.4386 38.3122 25.0748 38.5555C24.711 38.7987 24.4275 39.1444 24.2602 39.5488C24.0928 39.9532 24.0492 40.3982 24.1347 40.8274C24.2203 41.2566 24.4311 41.6508 24.7407 41.9602C25.0503 42.2695 25.4447 42.4801 25.8739 42.5654C26.3032 42.6506 26.7481 42.6066 27.1524 42.439C27.5567 42.2713 27.9022 41.9876 28.1452 41.6236C28.3882 41.2596 28.5178 40.8318 28.5177 40.3941C28.5167 39.8074 28.2832 39.2451 27.8682 38.8304C27.4532 38.4157 26.8907 38.1826 26.304 38.1821H26.304ZM39.8022 5.59102C39.3648 5.59134 38.9373 5.72134 38.5737 5.96459C38.2102 6.20784 37.9269 6.55342 37.7597 6.95764C37.5926 7.36186 37.549 7.80657 37.6345 8.23556C37.7201 8.66454 37.9309 9.05853 38.2403 9.36773C38.5497 9.67692 38.9438 9.88744 39.3729 9.97266C39.8019 10.0579 40.2466 10.014 40.6507 9.84651C41.0548 9.67905 41.4002 9.39553 41.6432 9.0318C41.8862 8.66807 42.0158 8.24047 42.0158 7.80304C42.0149 7.21639 41.7813 6.65405 41.3664 6.23937C40.9514 5.82469 40.3889 5.59153 39.8022 5.59102ZM12.8042 5.59102C12.3668 5.59134 11.9393 5.72134 11.5757 5.96459C11.2122 6.20785 10.9289 6.55342 10.7617 6.95765C10.5945 7.36187 10.551 7.80658 10.6365 8.23556C10.722 8.66454 10.9328 9.05853 11.2422 9.36773C11.5517 9.67692 11.9458 9.88744 12.3749 9.97266C12.8039 10.0579 13.2486 10.014 13.6527 9.84651C14.0568 9.67904 14.4022 9.39552 14.6451 9.0318C14.8881 8.66807 15.0178 8.24046 15.0178 7.80303C15.0169 7.21638 14.7833 6.65404 14.3683 6.23937C13.9534 5.82469 13.3909 5.59153 12.8042 5.59102ZM39.8022 32.5915C39.3648 32.5918 38.9373 32.7218 38.5737 32.965C38.2102 33.2083 37.9269 33.5539 37.7597 33.9581C37.5926 34.3623 37.549 34.807 37.6345 35.236C37.7201 35.665 37.9309 36.059 38.2403 36.3682C38.5497 36.6774 38.9438 36.8879 39.3729 36.9731C39.8019 37.0583 40.2466 37.0144 40.6507 36.847C41.0548 36.6795 41.4002 36.396 41.6432 36.0322C41.8862 35.6685 42.0158 35.2409 42.0158 34.8035C42.0149 34.2168 41.7813 33.6545 41.3664 33.2398C40.9514 32.8251 40.3889 32.592 39.8022 32.5915V32.5915ZM12.8042 32.5915C12.3668 32.5918 11.9393 32.7218 11.5757 32.965C11.2122 33.2083 10.9289 33.5539 10.7617 33.9581C10.5945 34.3623 10.551 34.807 10.6365 35.236C10.722 35.665 10.9328 36.059 11.2422 36.3682C11.5517 36.6774 11.9458 36.8879 12.3749 36.9731C12.8039 37.0583 13.2486 37.0144 13.6527 36.847C14.0568 36.6795 14.4022 36.396 14.6451 36.0322C14.8881 35.6685 15.0178 35.2409 15.0178 34.8035C15.0169 34.2168 14.7833 33.6545 14.3683 33.2398C13.9534 32.8251 13.3909 32.592 12.8042 32.5915V32.5915ZM45.3976 19.0929C44.9602 19.0932 44.5327 19.2232 44.1691 19.4664C43.8056 19.7097 43.5223 20.0553 43.3551 20.4595C43.188 20.8637 43.1444 21.3084 43.2299 21.7374C43.3154 22.1664 43.5262 22.5604 43.8357 22.8696C44.1451 23.1788 44.5392 23.3893 44.9683 23.4745C45.3973 23.5597 45.842 23.5158 46.2461 23.3484C46.6502 23.1809 46.9956 22.8974 47.2386 22.5336C47.4815 22.1699 47.6112 21.7423 47.6112 21.3049C47.6103 20.7182 47.3767 20.1559 46.9618 19.7412C46.5468 19.3265 45.9843 19.0934 45.3976 19.0929Z" fill="#9CA3AF"/>
</svg>
