<svg width="150" height="46" viewBox="0 0 150 46" fill="none" xmlns="http://www.w3.org/2000/svg">
<path fill-rule="evenodd" clip-rule="evenodd" d="M12.1384 17.6844L33.2138 0L37.5701 5.19163L19.0905 20.6979L27.7692 31.0408C28.3469 31.7292 28.6274 32.619 28.5491 33.5143C28.4708 34.4096 28.04 35.2371 27.3515 35.8148L15.2132 46L10.8569 40.8084L20.3994 32.8013L11.7207 22.4584C10.5177 21.0248 10.7047 18.8874 12.1384 17.6844Z" fill="#9CA3AF"/>
<path fill-rule="evenodd" clip-rule="evenodd" d="M0 27.8697L8.29027 20.9133L12.6466 26.105L4.3563 33.0613L0 27.8697Z" fill="#9CA3AF"/>
<path fill-rule="evenodd" clip-rule="evenodd" d="M48.4269 18.1304L31.1236 32.6495L26.7673 27.4579L44.0706 12.9387L48.4269 18.1304Z" fill="#9CA3AF"/>
<path fill-rule="evenodd" clip-rule="evenodd" d="M45.9968 22.7467C45.9968 22.7576 45.9848 22.7665 45.9701 22.7665C45.9455 22.7726 45.9235 22.7865 45.9075 22.8062C45.8877 22.8281 45.8674 22.8419 45.8624 22.8369C45.8495 22.8239 45.7987 22.8782 45.7987 22.9049C45.7987 22.9172 45.7914 22.9228 45.7825 22.9173C45.6608 23.0093 45.5528 23.1183 45.4619 23.2408C45.4619 23.2523 45.448 23.2617 45.431 23.2617C45.414 23.2617 45.405 23.2697 45.4111 23.2795C45.4171 23.2892 45.4081 23.3026 45.3912 23.309C45.3742 23.3156 45.3653 23.329 45.3713 23.3388C45.3774 23.3486 45.3692 23.3617 45.3531 23.3679C45.3489 23.3695 45.345 23.372 45.3418 23.3752C45.3386 23.3784 45.3362 23.3823 45.3346 23.3866C45.3331 23.3909 45.3325 23.3954 45.3328 23.3999C45.3332 23.4045 45.3346 23.4089 45.3368 23.4128C45.3456 23.4356 45.3423 23.4419 45.3266 23.4322C45.3121 23.4233 45.3034 23.4317 45.3034 23.4547C45.3034 23.4751 45.2965 23.4949 45.2839 23.511C45.2672 23.5431 45.258 23.5785 45.2569 23.6147C45.256 23.6479 45.2491 23.6806 45.2367 23.7114C45.2206 23.7533 45.2204 23.7997 45.2362 23.8417C45.2483 23.8746 45.2548 23.9093 45.2555 23.9443C45.2585 23.9906 45.2691 24.0362 45.287 24.0791C45.3 24.1022 45.3098 24.127 45.3162 24.1527C45.3231 24.1746 45.3369 24.1937 45.3556 24.2071C45.3746 24.2211 45.3823 24.2325 45.3727 24.2325C45.3631 24.2325 45.3725 24.2455 45.3937 24.2615C45.4149 24.2775 45.4246 24.2909 45.4154 24.2912C45.4062 24.2916 45.4304 24.32 45.4692 24.3543C45.508 24.3887 45.535 24.4244 45.5293 24.4337C45.5235 24.443 45.5327 24.456 45.5498 24.4626C45.5668 24.4691 45.5807 24.4836 45.5807 24.4949C45.5848 24.5122 45.5953 24.5274 45.6101 24.5373C45.6284 24.5533 45.6409 24.575 45.6453 24.5989C45.6492 24.6226 45.6571 24.6454 45.6686 24.6664C45.6806 24.696 45.6857 24.7279 45.6835 24.7598C45.6796 24.7872 45.6861 24.8152 45.7018 24.8381C45.7242 24.8519 45.6066 24.9633 45.5683 24.9646C45.5496 24.9613 45.5329 24.9511 45.5215 24.9359C45.508 24.9197 45.4898 24.9109 45.4808 24.9164C45.472 24.9219 45.4591 24.9084 45.4521 24.8865C45.4496 24.8765 45.4442 24.8675 45.4368 24.8604C45.4293 24.8533 45.4199 24.8485 45.4098 24.8466C45.3936 24.8466 45.3858 24.8377 45.3925 24.8268C45.3993 24.8159 45.3969 24.807 45.3871 24.807C45.3774 24.807 45.3578 24.785 45.3434 24.7581C45.329 24.7312 45.3097 24.7139 45.3004 24.7196C45.2912 24.7254 45.2836 24.712 45.2836 24.69C45.2824 24.6773 45.2782 24.6651 45.2713 24.6544C45.2644 24.6438 45.255 24.6349 45.244 24.6287C45.2308 24.6207 45.2201 24.6092 45.2131 24.5955C45.2062 24.5818 45.2031 24.5665 45.2043 24.5512C45.2044 24.5338 45.2004 24.5167 45.1927 24.5012C45.1849 24.4856 45.1737 24.4721 45.1598 24.4618C45.1353 24.4436 45.1263 24.4341 45.14 24.4407C45.176 24.4581 45.1705 24.4352 45.1218 24.3643C45.0664 24.2821 44.9943 24.2125 44.9102 24.16C44.8872 24.1515 44.8676 24.1357 44.8544 24.115C44.8469 24.104 44.8371 24.0946 44.8257 24.0876C44.8143 24.0805 44.8016 24.0759 44.7884 24.074C44.7791 24.0744 44.7699 24.0728 44.7613 24.0693C44.7527 24.0659 44.745 24.0606 44.7386 24.0538C44.7356 24.0486 44.7307 24.0448 44.7249 24.0431C44.7192 24.0415 44.713 24.0422 44.7077 24.0451C44.6976 24.0514 44.6893 24.0465 44.6893 24.0344C44.6893 24.0222 44.68 24.018 44.6686 24.025C44.6611 24.0281 44.6528 24.0291 44.6448 24.0277C44.6368 24.0264 44.6293 24.0228 44.6233 24.0173C44.4617 23.9839 44.2943 23.991 44.1361 24.0379C44.1036 24.0631 44.0838 24.0681 44.0747 24.0534C44.0661 24.0396 44.0384 24.0544 43.9988 24.0939C43.9646 24.1282 43.9362 24.1489 43.9359 24.1399C43.9355 24.1309 43.9262 24.1391 43.9151 24.1582C43.9104 24.167 43.9038 24.1748 43.8958 24.1808C43.8877 24.1868 43.8784 24.1909 43.8686 24.1928C43.8481 24.1963 43.8297 24.2072 43.8169 24.2234C43.8109 24.2314 43.8027 24.2375 43.7934 24.2411C43.7841 24.2447 43.774 24.2455 43.7642 24.2436C43.7566 24.241 43.7483 24.2415 43.7411 24.2451C43.7338 24.2486 43.7283 24.2548 43.7256 24.2624C43.7195 24.2785 43.7064 24.2867 43.6967 24.2807C43.687 24.2747 43.6605 24.2827 43.638 24.2985C43.6081 24.3195 43.604 24.3301 43.6231 24.3377C43.6413 24.345 43.6393 24.3486 43.6166 24.3497C43.5801 24.362 43.5471 24.3829 43.5205 24.4108C43.4958 24.4371 43.4655 24.4574 43.4317 24.4702C43.4051 24.4702 43.3965 24.5221 43.3989 24.6683C43.4004 24.7603 43.4355 24.8525 43.4626 24.8357C43.471 24.8305 43.4837 24.8442 43.4906 24.8661C43.4976 24.888 43.5121 24.906 43.523 24.906C43.5338 24.906 43.5375 24.9142 43.5314 24.9241C43.5253 24.9341 43.5314 24.946 43.545 24.9505C43.5531 24.9552 43.5597 24.9619 43.564 24.9701C43.5684 24.9783 43.5705 24.9875 43.5699 24.9968C43.5699 25.0177 43.5808 25.0326 43.5941 25.0301C43.6079 25.0273 43.6133 25.0378 43.6068 25.0548C43.6005 25.071 43.6054 25.0843 43.6174 25.0843C43.6295 25.0843 43.6383 25.091 43.637 25.0992C43.6292 25.1487 43.6463 25.1873 43.7 25.2411C43.7335 25.2744 43.756 25.3096 43.7501 25.3192C43.7357 25.3424 43.8068 25.4055 43.8258 25.3865C43.834 25.3782 43.8378 25.3845 43.8341 25.4004C43.833 25.4037 43.8328 25.4073 43.8333 25.4108C43.8339 25.4143 43.8352 25.4176 43.8373 25.4205C43.8393 25.4234 43.842 25.4258 43.8451 25.4274C43.8483 25.4291 43.8517 25.43 43.8553 25.4301C43.8705 25.4306 43.8899 25.4488 43.8984 25.4706C43.9069 25.4924 43.9146 25.5013 43.9156 25.4904C43.9165 25.4795 43.9253 25.4833 43.9352 25.4989C43.9478 25.5162 43.9664 25.5281 43.9874 25.5323C44.0055 25.5345 44.022 25.5434 44.0339 25.5572C44.0508 25.5732 44.0723 25.5835 44.0954 25.5864C44.1306 25.594 44.1653 25.6041 44.199 25.6169C44.2289 25.6285 44.2536 25.6316 44.2537 25.6236C44.2539 25.6158 44.2628 25.6227 44.2736 25.639C44.2897 25.6636 44.296 25.6641 44.3104 25.6418C44.3225 25.6231 44.3318 25.6216 44.3413 25.6369C44.36 25.6672 44.4713 25.6648 44.4717 25.634C44.4719 25.6176 44.4783 25.6192 44.4911 25.639C44.5078 25.6647 44.5215 25.6627 44.5945 25.6232C44.6481 25.5943 44.6814 25.5858 44.6861 25.5997C44.6909 25.6141 44.7045 25.6116 44.726 25.5921C44.7397 25.5786 44.7556 25.5676 44.773 25.5594C44.8429 25.5442 44.8655 25.5329 44.8563 25.5179C44.8503 25.5082 44.8571 25.499 44.8713 25.4973C44.9084 25.4964 44.9446 25.4861 44.9765 25.4673C44.9993 25.4553 45.025 25.4499 45.0507 25.4516C45.0588 25.4535 45.0672 25.4534 45.0752 25.4512C45.0832 25.4491 45.0905 25.4449 45.0965 25.4391C45.1117 25.4145 45.2836 25.4161 45.2836 25.4409C45.2836 25.4518 45.2961 25.4607 45.3114 25.4607C45.3777 25.4607 45.3926 25.6478 45.3319 25.7182C45.3189 25.7321 45.3101 25.7492 45.3063 25.7678C45.305 25.7748 45.3019 25.7815 45.2973 25.787C45.2928 25.7926 45.2869 25.7969 45.2802 25.7996C45.2657 25.8062 45.2261 25.8261 45.1923 25.8437C45.1584 25.8613 45.1254 25.8704 45.119 25.864C45.1126 25.8576 45.0798 25.8619 45.0462 25.8736C45.0105 25.8861 44.9899 25.8871 44.9968 25.8759C45.0124 25.8508 44.9148 25.8515 44.8674 25.8768C44.8295 25.8913 44.7895 25.8991 44.749 25.8999C44.7173 25.8982 44.6857 25.905 44.6575 25.9196C44.6509 25.9255 44.6432 25.93 44.6349 25.9329C44.6265 25.9357 44.6177 25.9368 44.6088 25.9361C44.5877 25.9361 44.5704 25.9429 44.5704 25.9511C44.5704 25.9594 44.5436 25.9779 44.5109 25.9925C44.4781 26.007 44.4553 26.0251 44.4601 26.0329C44.4649 26.0407 44.4506 26.0584 44.4284 26.0723C44.3952 26.093 44.3904 26.0929 44.4017 26.0714C44.4169 26.0424 44.3006 26.1641 44.2535 26.2265C44.2377 26.2468 44.2255 26.2696 44.2172 26.294C44.2124 26.3112 44.2019 26.3263 44.1875 26.3368C44.1705 26.3477 44.1711 26.3516 44.1899 26.3519C44.2062 26.3521 44.2009 26.3677 44.175 26.3955C44.1474 26.4284 44.133 26.4703 44.1346 26.5132C44.1377 26.5435 44.1307 26.5739 44.1148 26.5998C44.1084 26.6055 44.1034 26.6126 44.1002 26.6205C44.097 26.6285 44.0957 26.637 44.0964 26.6456C44.0975 26.6728 44.1009 26.6717 44.1148 26.6394C44.1286 26.6071 44.1321 26.606 44.1332 26.6333C44.1338 26.6418 44.1325 26.6504 44.1293 26.6583C44.1261 26.6662 44.1211 26.6733 44.1148 26.679C44.1018 26.6998 44.095 26.7239 44.095 26.7484C44.095 26.7729 44.1018 26.7969 44.1148 26.8177C44.1412 27.0216 44.1412 27.228 44.1148 27.4318C44.1076 27.4403 44.1021 27.4501 44.0987 27.4607C44.0953 27.4713 44.094 27.4825 44.095 27.4936C44.095 27.5208 44.1017 27.539 44.1098 27.534C44.118 27.5289 44.1266 27.5517 44.129 27.5847C44.1333 27.6435 44.1588 27.6725 44.2498 27.722C44.278 27.7374 44.3008 27.7397 44.3092 27.7281C44.3232 27.7086 44.356 27.698 44.4167 27.6935C44.4359 27.692 44.4516 27.685 44.4516 27.6778C44.4516 27.6706 44.4868 27.6591 44.5299 27.6522C44.5672 27.6484 44.602 27.6318 44.6283 27.6051C44.6419 27.5817 44.6487 27.5793 44.6491 27.5976C44.6495 27.6162 44.6635 27.6206 44.6942 27.6116C44.7313 27.6019 44.7689 27.5943 44.8069 27.5889C44.8385 27.5855 44.8691 27.576 44.8971 27.5608C44.907 27.5553 44.9179 27.5519 44.9292 27.5507C44.9405 27.5495 44.9519 27.5505 44.9627 27.5538C44.9952 27.5623 45.0062 27.5565 45.0062 27.5308C45.0062 27.5024 45.0115 27.5007 45.036 27.521C45.0546 27.5364 45.0657 27.5378 45.0657 27.5246C45.0657 27.5119 45.0916 27.5078 45.1315 27.5143C45.1476 27.5189 45.1644 27.5197 45.1808 27.5166C45.1972 27.5136 45.2126 27.5067 45.2258 27.4967C45.2329 27.4892 45.2416 27.4835 45.2513 27.4801C45.261 27.4768 45.2714 27.4758 45.2816 27.4774C45.2973 27.4826 45.3034 27.4775 45.2959 27.4655C45.2799 27.4395 45.3096 27.4199 45.3764 27.4126C45.4705 27.3639 45.5484 27.2888 45.6006 27.1966C45.6006 27.1861 45.6065 27.1835 45.6136 27.1907C45.6322 27.2092 45.6847 27.1289 45.6698 27.1048C45.663 27.0938 45.6714 27.0795 45.6885 27.073C45.6976 27.0686 45.7053 27.0617 45.7108 27.0532C45.7162 27.0447 45.7192 27.0349 45.7194 27.0248C45.719 27.0159 45.7204 27.007 45.7237 26.9987C45.727 26.9904 45.732 26.9829 45.7384 26.9767C45.7525 26.958 45.7589 26.9345 45.7562 26.9112C45.7504 26.864 45.7605 26.8162 45.7849 26.7754C45.804 26.7562 45.8023 26.6447 45.7831 26.6566C45.7674 26.6663 45.7613 26.6332 45.7573 26.5156C45.7561 26.4802 45.7471 26.4563 45.7372 26.4623C45.7193 26.4735 45.7115 26.4328 45.7187 26.3648C45.7209 26.3446 45.7152 26.3326 45.7062 26.3381C45.6971 26.3437 45.6882 26.3202 45.6864 26.2858C45.6837 26.2352 45.6862 26.2309 45.6998 26.263C45.7149 26.2985 45.7168 26.2989 45.718 26.2667C45.7177 26.2424 45.712 26.2185 45.7012 26.1967C45.6765 26.1506 45.7717 26.0034 45.8383 25.9847C45.9214 25.9614 45.9769 25.9585 45.9769 25.9775C45.9769 25.9875 45.9903 25.9956 46.0067 25.9956C46.0139 25.9951 46.0211 25.9974 46.0267 26.0022C46.0322 26.0069 46.0357 26.0136 46.0364 26.0209C46.0429 26.0448 46.0571 26.0659 46.0768 26.0809C46.0991 26.0999 46.112 26.1242 46.1054 26.1348C46.0988 26.1454 46.1096 26.1548 46.1293 26.1556C46.149 26.1565 46.1546 26.1615 46.1418 26.1667C46.1281 26.1723 46.122 26.2021 46.127 26.2394C46.1496 26.4084 46.148 26.4894 46.1217 26.4995C46.1036 26.5064 46.0988 26.5278 46.1069 26.5647C46.1161 26.6069 46.1139 26.6127 46.0977 26.5899C46.0787 26.5631 46.062 26.6669 46.0744 26.7356C46.0726 26.7529 46.0651 26.7691 46.0532 26.7817C46.0377 26.8003 46.0361 26.8156 46.0487 26.8241C46.0653 26.8354 46.0756 26.8976 46.0814 27.0208C46.0821 27.0344 46.0885 27.0455 46.0958 27.0455C46.1031 27.0455 46.109 27.0579 46.109 27.0731C46.109 27.1171 46.1583 27.2238 46.1786 27.2238C46.1888 27.2238 46.1923 27.2318 46.1862 27.2415C46.1693 27.269 46.4075 27.5068 46.435 27.4898C46.4492 27.481 46.4533 27.4837 46.4453 27.4967C46.4335 27.5158 46.4759 27.5411 46.5175 27.5398C46.5357 27.5457 46.5521 27.5564 46.5646 27.5709C46.5719 27.5791 46.581 27.5853 46.5913 27.589C46.6016 27.5927 46.6126 27.5937 46.6234 27.5921C46.6383 27.5864 46.6505 27.5913 46.6505 27.6029C46.6505 27.6147 46.6636 27.6192 46.6796 27.6131C46.6863 27.6099 46.6939 27.6089 46.7013 27.6103C46.7086 27.6117 46.7154 27.6155 46.7204 27.621C46.7269 27.6314 46.7552 27.6342 46.7834 27.6271C46.8217 27.6175 46.8308 27.6206 46.8194 27.6391C46.8084 27.6568 46.8147 27.6605 46.8412 27.6521C46.8736 27.6478 46.9065 27.654 46.9351 27.6698C46.9671 27.6863 47.002 27.6963 47.0379 27.6993C47.0484 27.6985 47.0591 27.6998 47.0691 27.7032C47.0791 27.7066 47.0883 27.712 47.0962 27.7191C47.1003 27.7249 47.1057 27.7296 47.1119 27.733C47.1181 27.7364 47.125 27.7383 47.1321 27.7386C47.1462 27.7384 47.1438 27.7306 47.1259 27.7191C47.0491 27.6695 47.1434 27.7074 47.3287 27.8008C47.3752 27.814 47.4235 27.8198 47.4718 27.8181C47.6215 27.8181 47.6388 27.7824 47.6407 27.4692C47.6425 27.1808 47.6453 27.1449 47.6651 27.1571C47.6736 27.1624 47.6806 27.1413 47.6806 27.1101C47.6799 27.0811 47.6885 27.0526 47.7052 27.0288C47.7248 27.0093 47.7238 27.0005 47.7003 26.9855C47.6805 26.9731 47.6789 26.9668 47.6955 26.9666C47.7402 26.966 47.7283 26.6252 47.6806 26.5404C47.6601 26.5057 47.6467 26.4674 47.641 26.4275C47.641 26.4042 47.6349 26.3913 47.6275 26.3987C47.62 26.4061 47.6 26.3831 47.5829 26.3475C47.5215 26.2193 47.3299 26.055 47.2419 26.055C47.2064 26.0496 47.1727 26.0355 47.1439 26.014C47.1122 25.9915 47.0863 25.9826 47.0863 25.9942C47.0863 26.0059 47.0724 26.0154 47.0554 26.0154C47.0384 26.0154 47.0301 26.0065 47.0368 25.9956C47.0443 25.9833 47.0106 25.9758 46.9488 25.9758C46.8879 25.9758 46.8486 25.9671 46.8486 25.9535C46.8486 25.939 46.8369 25.9408 46.8151 25.9585C46.7923 25.977 46.7863 25.9777 46.7964 25.9609C46.809 25.9401 46.764 25.923 46.7441 25.9411C46.7411 25.9438 46.7172 25.926 46.6909 25.9015C46.6678 25.8785 46.6385 25.863 46.6065 25.8569C46.5966 25.8569 46.5869 25.8541 46.5784 25.8488C46.57 25.8436 46.5631 25.8362 46.5587 25.8273C46.5524 25.811 46.5402 25.802 46.5317 25.8074C46.5231 25.8127 46.5104 25.7944 46.5034 25.7668C46.4965 25.7392 46.4821 25.722 46.4715 25.7286C46.4418 25.7469 46.4973 25.6324 46.5314 25.605C46.5567 25.5891 46.5859 25.5805 46.6158 25.5802C46.6458 25.5799 46.6705 25.5684 46.6706 25.5548C46.6708 25.5394 46.6764 25.5376 46.6855 25.5498C46.7088 25.5656 46.7365 25.5735 46.7647 25.5726C46.7984 25.5738 46.8318 25.58 46.8638 25.5909C46.8883 25.6005 46.9141 25.6065 46.9404 25.6084C46.9786 25.6195 47.0122 25.6426 47.0362 25.6743C47.0596 25.7057 47.0931 25.7282 47.131 25.738C47.1536 25.738 47.1663 25.7439 47.1591 25.7511C47.1382 25.772 47.2186 25.8185 47.2529 25.8053C47.2568 25.8035 47.261 25.8025 47.2653 25.8024C47.2695 25.8023 47.2738 25.8031 47.2777 25.8047C47.2817 25.8063 47.2853 25.8086 47.2883 25.8117C47.2913 25.8147 47.2936 25.8183 47.2952 25.8223C47.3015 25.8319 47.3106 25.8393 47.3212 25.8435C47.3319 25.8478 47.3436 25.8486 47.3548 25.8459C47.3814 25.843 47.4033 25.8492 47.4033 25.8598C47.4033 25.8704 47.4122 25.8735 47.4231 25.8668C47.434 25.8601 47.4429 25.8632 47.4429 25.8737C47.5537 25.8993 47.6689 25.8993 47.7797 25.8737C47.7797 25.8632 47.7886 25.8601 47.7995 25.8668C47.8104 25.8735 47.8193 25.8708 47.8193 25.8608C47.8193 25.8507 47.8394 25.8441 47.8639 25.846C47.9303 25.8424 47.9934 25.8155 48.0419 25.7699C48.0502 25.7574 48.0566 25.7565 48.0567 25.7678C48.0569 25.7787 48.0787 25.7625 48.1051 25.7318C48.1315 25.7011 48.1604 25.6778 48.1694 25.6801C48.1784 25.6823 48.1955 25.6651 48.2074 25.6418C48.2192 25.6186 48.2348 25.6055 48.2421 25.6127C48.2492 25.6199 48.2551 25.6065 48.2551 25.5829C48.2551 25.5572 48.2676 25.5399 48.286 25.5399C48.303 25.5399 48.3116 25.5314 48.3051 25.5209C48.2986 25.5104 48.3114 25.4836 48.3336 25.4614C48.3531 25.4449 48.3658 25.4217 48.369 25.3963C48.3663 25.3827 48.3759 25.374 48.3903 25.377C48.4047 25.38 48.4112 25.3737 48.4047 25.3631C48.3981 25.3525 48.4104 25.3343 48.4321 25.3227C48.4576 25.3091 48.4672 25.2901 48.459 25.2689C48.4506 25.247 48.4541 25.241 48.4697 25.2506C48.4824 25.2585 48.4929 25.2566 48.4929 25.2464C48.4929 25.2361 48.5195 25.2167 48.552 25.2033C48.5846 25.1898 48.6063 25.1709 48.6004 25.1613C48.5944 25.1516 48.5996 25.1437 48.612 25.1437C48.6563 25.1437 48.691 25.0857 48.691 25.0114C48.6909 24.9303 48.5578 24.7691 48.5136 24.7965C48.5022 24.8035 48.4929 24.7948 48.4929 24.777C48.4904 24.7568 48.4818 24.7379 48.4681 24.7228C48.4545 24.7077 48.4366 24.6972 48.4168 24.6926C48.3908 24.6817 48.3674 24.6655 48.3479 24.6451C48.3241 24.622 48.318 24.6102 48.3344 24.6191C48.3507 24.6279 48.3427 24.6116 48.3166 24.5829C48.2905 24.5543 48.2613 24.5357 48.2518 24.5416C48.2422 24.5475 48.2368 24.5438 48.2398 24.5332C48.2458 24.512 48.1603 24.4306 48.1321 24.4306C48.1222 24.4306 48.1195 24.4219 48.126 24.4113C48.1326 24.4007 48.1152 24.3864 48.0875 24.3794C48.0599 24.3725 48.0372 24.3595 48.0372 24.3506C48.0372 24.3266 47.9191 24.2721 47.8669 24.2721C47.8565 24.2728 47.846 24.2715 47.8361 24.2681C47.8262 24.2647 47.8171 24.2593 47.8094 24.2523C47.8037 24.2459 47.7966 24.2409 47.7887 24.2377C47.7807 24.2345 47.7722 24.2332 47.7636 24.2338C47.7363 24.235 47.7375 24.2384 47.7698 24.2523C47.8021 24.2661 47.8032 24.2695 47.7759 24.2707C47.7673 24.2713 47.7587 24.2699 47.7507 24.2666C47.7427 24.2634 47.7356 24.2583 47.7299 24.2518C47.6089 24.2274 47.4839 24.232 47.3651 24.2651C47.3451 24.2779 47.3209 24.2824 47.2976 24.2779C47.2869 24.2713 47.2846 24.2761 47.2925 24.2888C47.3059 24.3106 47.2827 24.3199 47.231 24.3134C47.2179 24.3118 47.1974 24.3288 47.1854 24.3512C47.1734 24.3737 47.1567 24.3878 47.1483 24.3826C47.1271 24.3695 46.9263 24.556 46.9207 24.5939C46.9164 24.6148 46.9075 24.6344 46.8947 24.6514C46.8706 24.6883 46.8496 24.7271 46.8319 24.7673C46.8092 24.8164 46.7897 24.8431 46.7886 24.8268C46.7875 24.8091 46.7794 24.8152 46.7688 24.8416C46.7589 24.8661 46.7372 24.8862 46.7205 24.8862C46.7038 24.8862 46.6923 24.8973 46.6951 24.911C46.6978 24.9246 46.6897 24.9338 46.6771 24.9314C46.6682 24.9316 46.6594 24.9338 46.6514 24.9379C46.6434 24.942 46.6365 24.9478 46.6311 24.955C46.6254 24.9623 46.6178 24.9679 46.609 24.9711C46.6003 24.9742 46.5908 24.9748 46.5817 24.9728C46.5748 24.9701 46.5673 24.9697 46.5602 24.9717C46.553 24.9737 46.5468 24.978 46.5424 24.9839C46.5174 25.0244 46.383 25.0082 46.337 24.9592C46.2915 24.9108 46.2781 24.7992 46.3151 24.7764C46.321 24.7718 46.3253 24.7653 46.3272 24.7581C46.3292 24.7508 46.3286 24.743 46.3257 24.7361C46.4026 24.6113 46.501 24.5012 46.6162 24.4108C46.6432 24.4108 46.6834 24.3639 46.6992 24.3142C46.7071 24.2894 46.7186 24.2742 46.7248 24.2803C46.7368 24.2923 46.7728 24.2384 46.8131 24.1483C46.8265 24.1183 46.8444 24.0938 46.853 24.0938C46.8614 24.0938 46.8684 24.0631 46.8684 24.0256C46.8656 23.9978 46.8721 23.9697 46.887 23.946C46.9085 23.8402 46.9076 23.7311 46.8842 23.6258C46.872 23.6089 46.8664 23.5883 46.8684 23.5676C46.8684 23.541 46.8595 23.5193 46.8486 23.5193C46.8377 23.5193 46.8298 23.5126 46.8311 23.5044C46.8384 23.4583 46.8261 23.4196 46.8076 23.431C46.7961 23.4382 46.7882 23.432 46.7902 23.4173C46.7973 23.3654 46.789 23.3388 46.7694 23.3509C46.7585 23.3576 46.7495 23.3493 46.7495 23.3323C46.6787 23.2062 46.5771 23.1002 46.4542 23.024C46.4387 23.024 46.4315 23.0185 46.4382 23.0117C46.4536 22.9964 46.4036 22.9448 46.3734 22.9448C46.3611 22.9448 46.3559 22.9368 46.362 22.9271C46.368 22.9173 46.359 22.904 46.3421 22.8975C46.3251 22.8909 46.3167 22.8766 46.3235 22.8657C46.3303 22.8547 46.3253 22.8457 46.3123 22.8457C46.2676 22.8259 46.2325 22.7892 46.2147 22.7437C46.2147 22.7344 46.1656 22.7269 46.1057 22.7269C46.0458 22.7269 45.9968 22.7358 45.9968 22.7467" fill="#9CA3AF"/>
<path d="M69.0023 27.1632C69.0023 26.8933 68.9604 26.6523 68.8768 26.4402C68.7996 26.2217 68.6548 26.0257 68.4424 25.8522C68.2365 25.6722 67.9437 25.4987 67.564 25.3316C67.1907 25.1581 66.7081 24.9781 66.1161 24.7918C65.4597 24.5861 64.8483 24.3548 64.282 24.0977C63.7157 23.8406 63.217 23.5418 62.7858 23.2012C62.3611 22.8605 62.0296 22.4685 61.7915 22.0251C61.5534 21.5752 61.4344 21.0546 61.4344 20.4634C61.4344 19.885 61.5567 19.358 61.8012 18.8824C62.0522 18.4068 62.4061 17.9987 62.863 17.6581C63.3199 17.3111 63.8573 17.0443 64.4751 16.858C65.0993 16.6716 65.7879 16.5784 66.5408 16.5784C67.5833 16.5784 68.4842 16.768 69.2436 17.1472C70.0094 17.5263 70.6014 18.0405 71.0197 18.6896C71.438 19.3387 71.6472 20.0681 71.6472 20.8779H69.0023C69.0023 20.4409 68.909 20.0553 68.7223 19.7211C68.5422 19.3869 68.2654 19.1234 67.8922 18.9306C67.5254 18.7378 67.062 18.6414 66.5022 18.6414C65.9616 18.6414 65.5111 18.7217 65.1508 18.8824C64.7968 19.0431 64.5298 19.2616 64.3496 19.5379C64.1758 19.8143 64.0889 20.1228 64.0889 20.4634C64.0889 20.7204 64.1501 20.9518 64.2723 21.1575C64.3946 21.3567 64.578 21.5463 64.8226 21.7262C65.0671 21.8997 65.3696 22.0636 65.7299 22.2179C66.0967 22.3657 66.5215 22.5135 67.0041 22.6613C67.7764 22.8927 68.4521 23.1497 69.0312 23.4325C69.6168 23.7153 70.1027 24.0366 70.4888 24.3965C70.8814 24.7564 71.1742 25.1613 71.3672 25.6112C71.5667 26.0611 71.6665 26.572 71.6665 27.144C71.6665 27.7481 71.5474 28.2879 71.3093 28.7635C71.0712 29.2391 70.7302 29.644 70.2861 29.9781C69.8421 30.3123 69.308 30.5662 68.6837 30.7397C68.0659 30.9132 67.3742 31 66.6084 31C65.9262 31 65.2505 30.91 64.5812 30.7301C63.9184 30.5437 63.3167 30.2674 62.7761 29.901C62.2356 29.5283 61.8044 29.0591 61.4826 28.4936C61.1609 27.9216 61 27.2532 61 26.4884H63.6642C63.6642 26.9319 63.735 27.3111 63.8766 27.626C64.0246 27.9344 64.2305 28.1883 64.4944 28.3875C64.7646 28.5803 65.08 28.7217 65.4403 28.8117C65.8007 28.9017 66.1901 28.9467 66.6084 28.9467C67.1489 28.9467 67.593 28.8728 67.9405 28.7249C68.2944 28.5707 68.5582 28.3586 68.732 28.0887C68.9122 27.8188 69.0023 27.5103 69.0023 27.1632Z" fill="#9CA3AF"/>
<path d="M76.4254 28.3008L78.7131 20.3766H80.3348L79.8522 23.1144L77.5451 30.8072H76.1454L76.4254 28.3008ZM75.1608 20.3766L76.8791 28.3201L77.0335 30.8072H75.4215L72.68 20.3766H75.1608ZM82.4585 28.2044L84.1381 20.3766H86.6092L83.8871 30.8072H82.2751L82.4585 28.2044ZM80.5858 20.3766L82.8542 28.2237L83.1535 30.8072H81.7538L79.4274 23.1144L78.9544 20.3766H80.5858Z" fill="#9CA3AF"/>
<path d="M90.8179 20.3766V30.8072H88.2599V20.3766H90.8179ZM88.0861 17.6485C88.0861 17.2693 88.2148 16.9544 88.4722 16.7037C88.7361 16.4531 89.09 16.3278 89.5341 16.3278C89.9781 16.3278 90.3288 16.4531 90.5862 16.7037C90.8501 16.9544 90.982 17.2693 90.982 17.6485C90.982 18.0212 90.8501 18.3329 90.5862 18.5835C90.3288 18.8342 89.9781 18.9595 89.5341 18.9595C89.09 18.9595 88.7361 18.8342 88.4722 18.5835C88.2148 18.3329 88.0861 18.0212 88.0861 17.6485Z" fill="#9CA3AF"/>
<path d="M95.7505 22.6035V30.8072H93.2022V20.3766H95.5961L95.7505 22.6035ZM95.3451 25.2159H94.5922C94.5986 24.4576 94.7016 23.7699 94.9011 23.153C95.1006 22.536 95.3805 22.0058 95.7409 21.5623C96.1077 21.1189 96.5421 20.7783 97.044 20.5405C97.546 20.3027 98.1059 20.1838 98.7236 20.1838C99.2256 20.1838 99.6793 20.2545 100.085 20.3959C100.49 20.5373 100.838 20.7622 101.127 21.0707C101.423 21.3792 101.648 21.7841 101.803 22.2853C101.964 22.7802 102.044 23.3907 102.044 24.117V30.8072H99.4766V24.0977C99.4766 23.6221 99.4058 23.2461 99.2642 22.9698C99.1291 22.6934 98.9296 22.4974 98.6657 22.3817C98.4083 22.2661 98.0898 22.2082 97.7101 22.2082C97.3175 22.2082 96.9733 22.2886 96.6772 22.4492C96.3876 22.6035 96.1431 22.8188 95.9436 23.0951C95.7505 23.3715 95.6025 23.6896 95.4996 24.0495C95.3966 24.4094 95.3451 24.7982 95.3451 25.2159Z" fill="#9CA3AF"/>
<path d="M118.329 28.7249V30.8072H111.263V28.7249H118.329ZM112.064 16.7712V30.8072H109.409V16.7712H112.064Z" fill="#9CA3AF"/>
<path d="M124.603 31C123.812 31 123.101 30.8715 122.47 30.6144C121.839 30.3573 121.302 30.0006 120.858 29.5443C120.42 29.0816 120.082 28.545 119.844 27.9344C119.613 27.3175 119.497 26.6555 119.497 25.9486V25.563C119.497 24.7596 119.613 24.0302 119.844 23.3747C120.076 22.7127 120.404 22.144 120.829 21.6684C121.254 21.1928 121.762 20.8265 122.354 20.5694C122.946 20.3123 123.599 20.1838 124.314 20.1838C125.054 20.1838 125.707 20.3091 126.273 20.5598C126.839 20.804 127.312 21.151 127.692 21.6009C128.072 22.0508 128.358 22.5906 128.551 23.2204C128.744 23.8438 128.841 24.5347 128.841 25.2931V26.3631H120.655V24.6086H126.331V24.4158C126.318 24.0109 126.241 23.6414 126.099 23.3072C125.958 22.9666 125.739 22.6967 125.443 22.4974C125.147 22.2918 124.764 22.1889 124.294 22.1889C123.915 22.1889 123.583 22.2725 123.3 22.4396C123.023 22.6003 122.792 22.8316 122.605 23.1337C122.425 23.4293 122.29 23.7828 122.2 24.1941C122.109 24.6054 122.064 25.0617 122.064 25.563V25.9486C122.064 26.3856 122.122 26.7905 122.238 27.1632C122.36 27.536 122.537 27.8605 122.769 28.1369C123.007 28.4068 123.29 28.6189 123.619 28.7731C123.953 28.921 124.333 28.9949 124.758 28.9949C125.292 28.9949 125.774 28.892 126.206 28.6864C126.643 28.4743 127.023 28.1626 127.345 27.7513L128.628 29.0816C128.41 29.403 128.114 29.7114 127.74 30.0071C127.374 30.3027 126.93 30.5437 126.408 30.7301C125.887 30.91 125.285 31 124.603 31Z" fill="#9CA3AF"/>
<path d="M136.303 28.59V23.7796C136.303 23.4261 136.241 23.1208 136.119 22.8638C135.997 22.6067 135.81 22.4075 135.559 22.2661C135.308 22.1247 134.99 22.054 134.604 22.054C134.263 22.054 133.963 22.1118 133.706 22.2275C133.455 22.3432 133.262 22.5071 133.127 22.7192C132.992 22.9248 132.924 23.1626 132.924 23.4325H130.366C130.366 23.0019 130.469 22.5938 130.675 22.2082C130.881 21.8162 131.174 21.4692 131.553 21.1671C131.939 20.8586 132.4 20.6176 132.934 20.4441C133.474 20.2706 134.079 20.1838 134.748 20.1838C135.54 20.1838 136.245 20.3188 136.862 20.5887C137.487 20.8522 137.976 21.2506 138.33 21.7841C138.69 22.3175 138.87 22.9891 138.87 23.7988V28.349C138.87 28.8695 138.902 29.3162 138.967 29.6889C139.037 30.0553 139.14 30.3734 139.276 30.6433V30.8072H136.679C136.557 30.5437 136.463 30.2095 136.399 29.8046C136.335 29.3933 136.303 28.9884 136.303 28.59ZM136.66 24.4544L136.679 25.9679H135.067C134.668 25.9679 134.317 26.0096 134.015 26.0932C133.712 26.1703 133.465 26.286 133.271 26.4402C133.078 26.588 132.934 26.768 132.837 26.9801C132.741 27.1857 132.692 27.4203 132.692 27.6838C132.692 27.9409 132.75 28.1722 132.866 28.3779C132.988 28.5835 133.162 28.7474 133.387 28.8695C133.619 28.9852 133.889 29.0431 134.198 29.0431C134.649 29.0431 135.041 28.9531 135.376 28.7731C135.71 28.5868 135.971 28.3618 136.158 28.0983C136.344 27.8348 136.444 27.5842 136.457 27.3464L137.191 28.4454C137.1 28.7089 136.965 28.9884 136.785 29.2841C136.605 29.5797 136.373 29.856 136.09 30.1131C135.807 30.3702 135.466 30.5823 135.067 30.7494C134.668 30.9165 134.205 31 133.677 31C133.001 31 132.396 30.865 131.862 30.5951C131.328 30.3252 130.907 29.9557 130.598 29.4865C130.289 29.0174 130.134 28.4839 130.134 27.8862C130.134 27.3335 130.237 26.8451 130.443 26.421C130.649 25.9968 130.955 25.6401 131.36 25.3509C131.766 25.0553 132.268 24.8335 132.866 24.6857C133.471 24.5315 134.163 24.4544 134.941 24.4544H136.66Z" fill="#9CA3AF"/>
<path d="M147.432 28.59V16H150V30.8072H147.683L147.432 28.59ZM140.724 25.7172V25.5148C140.724 24.7179 140.814 23.9949 140.994 23.3458C141.18 22.6902 141.451 22.1279 141.805 21.6587C142.159 21.1896 142.587 20.8265 143.089 20.5694C143.597 20.3123 144.173 20.1838 144.816 20.1838C145.441 20.1838 145.984 20.3091 146.448 20.5598C146.918 20.8104 147.316 21.1671 147.645 21.6298C147.979 22.0925 148.246 22.642 148.446 23.2783C148.645 23.9081 148.79 24.6022 148.88 25.3605V25.91C148.79 26.6491 148.645 27.3271 148.446 27.9441C148.246 28.5611 147.979 29.1009 147.645 29.5636C147.316 30.0199 146.918 30.3734 146.448 30.624C145.978 30.8747 145.428 31 144.797 31C144.16 31 143.587 30.8683 143.079 30.6048C142.577 30.3413 142.149 29.9717 141.795 29.4961C141.448 29.0206 141.18 28.4614 140.994 27.8188C140.814 27.1761 140.724 26.4756 140.724 25.7172ZM143.282 25.5148V25.7172C143.282 26.1671 143.32 26.588 143.397 26.9801C143.475 27.3721 143.6 27.7192 143.774 28.0212C143.948 28.3168 144.17 28.5482 144.44 28.7153C144.717 28.8824 145.051 28.9659 145.444 28.9659C145.946 28.9659 146.358 28.8567 146.679 28.6382C147.008 28.4132 147.262 28.108 147.442 27.7224C147.622 27.3303 147.738 26.8901 147.789 26.4017V24.8882C147.764 24.5026 147.696 24.1459 147.587 23.8181C147.484 23.4904 147.336 23.2076 147.143 22.9698C146.956 22.732 146.724 22.5456 146.448 22.4107C146.171 22.2757 145.843 22.2082 145.463 22.2082C145.071 22.2082 144.736 22.295 144.459 22.4685C144.183 22.6356 143.957 22.8702 143.784 23.1722C143.61 23.4743 143.481 23.8246 143.397 24.223C143.32 24.6215 143.282 25.0521 143.282 25.5148Z" fill="#9CA3AF"/>
</svg>
