<svg width="127" height="35" viewBox="0 0 127 35" fill="none" xmlns="http://www.w3.org/2000/svg">
<path d="M7.89533 24.2891L13.0127 6.83531H19.6287L11.6785 29.5526C11.5079 30.0522 11.2825 30.5883 11.0023 31.161C10.722 31.7458 10.3382 32.3002 9.85088 32.8241C9.36352 33.348 8.73603 33.7745 7.96843 34.1034C7.21301 34.4324 6.27484 34.5969 5.15389 34.5969C4.55687 34.5969 4.11824 34.5664 3.83801 34.5055C3.56996 34.4568 3.15569 34.3654 2.59522 34.2314V29.8268C2.75362 29.8268 2.88764 29.8268 2.9973 29.8268C3.11914 29.8268 3.25317 29.8268 3.39938 29.8268C4.05732 29.8268 4.58124 29.7598 4.97113 29.6258C5.37321 29.4917 5.67781 29.2968 5.88494 29.0409C6.10426 28.785 6.27484 28.4743 6.39668 28.1088L7.89533 24.2891ZM6.59772 6.83531L10.4906 20.6704L11.1668 27.195H7.03634L0 6.83531H6.59772Z" fill="#9CA3AF"/>
<path d="M27.9443 0V26.6102H21.5294V0H27.9443ZM38.2887 11.0754V16.01H26.1167V11.0754H38.2887ZM39.3304 0V4.95286H26.1167V0H39.3304Z" fill="#9CA3AF"/>
<path d="M55.9922 23.6797L59.4375 12.3828H62.4609L57.375 26.9961C57.2578 27.3086 57.1055 27.6484 56.918 28.0156C56.7305 28.3828 56.4844 28.7305 56.1797 29.0586C55.8828 29.3945 55.5117 29.6641 55.0664 29.8672C54.6211 30.0781 54.082 30.1836 53.4492 30.1836C53.1992 30.1836 52.957 30.1602 52.7227 30.1133C52.4961 30.0742 52.2812 30.0312 52.0781 29.9844L52.0664 27.8281C52.1445 27.8359 52.2383 27.8438 52.3477 27.8516C52.4648 27.8594 52.5586 27.8633 52.6289 27.8633C53.0977 27.8633 53.4883 27.8047 53.8008 27.6875C54.1133 27.5781 54.3672 27.3984 54.5625 27.1484C54.7656 26.8984 54.9375 26.5625 55.0781 26.1406L55.9922 23.6797ZM54.0469 12.3828L57.0586 21.875L57.5625 24.8516L55.6055 25.3555L51 12.3828H54.0469Z" fill="#9CA3AF"/>
<path d="M67.3008 8V25.0625H64.3594V8H67.3008ZM74.2617 15.4648V17.7969H66.5508V15.4648H74.2617ZM75.2344 8V10.3438H66.5508V8H75.2344Z" fill="#9CA3AF"/>
<path d="M76.5 18.8633V18.5938C76.5 17.6797 76.6328 16.832 76.8984 16.0508C77.1641 15.2617 77.5469 14.5781 78.0469 14C78.5547 13.4141 79.1719 12.9609 79.8984 12.6406C80.6328 12.3125 81.4609 12.1484 82.3828 12.1484C83.3125 12.1484 84.1406 12.3125 84.8672 12.6406C85.6016 12.9609 86.2227 13.4141 86.7305 14C87.2383 14.5781 87.625 15.2617 87.8906 16.0508C88.1562 16.832 88.2891 17.6797 88.2891 18.5938V18.8633C88.2891 19.7773 88.1562 20.625 87.8906 21.4062C87.625 22.1875 87.2383 22.8711 86.7305 23.457C86.2227 24.0352 85.6055 24.4883 84.8789 24.8164C84.1523 25.1367 83.3281 25.2969 82.4062 25.2969C81.4766 25.2969 80.6445 25.1367 79.9102 24.8164C79.1836 24.4883 78.5664 24.0352 78.0586 23.457C77.5508 22.8711 77.1641 22.1875 76.8984 21.4062C76.6328 20.625 76.5 19.7773 76.5 18.8633ZM79.3242 18.5938V18.8633C79.3242 19.4336 79.3828 19.9727 79.5 20.4805C79.6172 20.9883 79.8008 21.4336 80.0508 21.8164C80.3008 22.1992 80.6211 22.5 81.0117 22.7188C81.4023 22.9375 81.8672 23.0469 82.4062 23.0469C82.9297 23.0469 83.3828 22.9375 83.7656 22.7188C84.1562 22.5 84.4766 22.1992 84.7266 21.8164C84.9766 21.4336 85.1602 20.9883 85.2773 20.4805C85.4023 19.9727 85.4648 19.4336 85.4648 18.8633V18.5938C85.4648 18.0312 85.4023 17.5 85.2773 17C85.1602 16.4922 84.9727 16.043 84.7148 15.6523C84.4648 15.2617 84.1445 14.957 83.7539 14.7383C83.3711 14.5117 82.9141 14.3984 82.3828 14.3984C81.8516 14.3984 81.3906 14.5117 81 14.7383C80.6172 14.957 80.3008 15.2617 80.0508 15.6523C79.8008 16.043 79.6172 16.4922 79.5 17C79.3828 17.5 79.3242 18.0312 79.3242 18.5938Z" fill="#9CA3AF"/>
<path d="M95.8359 23.0469C96.2969 23.0469 96.7109 22.957 97.0781 22.7773C97.4531 22.5898 97.7539 22.332 97.9805 22.0039C98.2148 21.6758 98.3438 21.2969 98.3672 20.8672H101.027C101.012 21.6875 100.77 22.4336 100.301 23.1055C99.832 23.7773 99.2109 24.3125 98.4375 24.7109C97.6641 25.1016 96.8086 25.2969 95.8711 25.2969C94.9023 25.2969 94.0586 25.1328 93.3398 24.8047C92.6211 24.4688 92.0234 24.0078 91.5469 23.4219C91.0703 22.8359 90.7109 22.1602 90.4688 21.3945C90.2344 20.6289 90.1172 19.8086 90.1172 18.9336V18.5234C90.1172 17.6484 90.2344 16.8281 90.4688 16.0625C90.7109 15.2891 91.0703 14.6094 91.5469 14.0234C92.0234 13.4375 92.6211 12.9805 93.3398 12.6523C94.0586 12.3164 94.8984 12.1484 95.8594 12.1484C96.875 12.1484 97.7656 12.3516 98.5312 12.7578C99.2969 13.1562 99.8984 13.7148 100.336 14.4336C100.781 15.1445 101.012 15.9727 101.027 16.918H98.3672C98.3438 16.4492 98.2266 16.0273 98.0156 15.6523C97.8125 15.2695 97.5234 14.9648 97.1484 14.7383C96.7812 14.5117 96.3398 14.3984 95.8242 14.3984C95.2539 14.3984 94.7812 14.5156 94.4062 14.75C94.0312 14.9766 93.7383 15.2891 93.5273 15.6875C93.3164 16.0781 93.1641 16.5195 93.0703 17.0117C92.9844 17.4961 92.9414 18 92.9414 18.5234V18.9336C92.9414 19.457 92.9844 19.9648 93.0703 20.457C93.1562 20.9492 93.3047 21.3906 93.5156 21.7812C93.7344 22.1641 94.0312 22.4727 94.4062 22.707C94.7812 22.9336 95.2578 23.0469 95.8359 23.0469Z" fill="#9CA3AF"/>
<path d="M110.824 22.0742V12.3828H113.66V25.0625H110.988L110.824 22.0742ZM111.223 19.4375L112.172 19.4141C112.172 20.2656 112.078 21.0508 111.891 21.7695C111.703 22.4805 111.414 23.1016 111.023 23.6328C110.633 24.1562 110.133 24.5664 109.523 24.8633C108.914 25.1523 108.184 25.2969 107.332 25.2969C106.715 25.2969 106.148 25.207 105.633 25.0273C105.117 24.8477 104.672 24.5703 104.297 24.1953C103.93 23.8203 103.645 23.332 103.441 22.7305C103.238 22.1289 103.137 21.4102 103.137 20.5742V12.3828H105.961V20.5977C105.961 21.0586 106.016 21.4453 106.125 21.7578C106.234 22.0625 106.383 22.3086 106.57 22.4961C106.758 22.6836 106.977 22.8164 107.227 22.8945C107.477 22.9727 107.742 23.0117 108.023 23.0117C108.828 23.0117 109.461 22.8555 109.922 22.543C110.391 22.2227 110.723 21.793 110.918 21.2539C111.121 20.7148 111.223 20.1094 111.223 19.4375Z" fill="#9CA3AF"/>
<path d="M123.668 21.6289C123.668 21.3477 123.598 21.0938 123.457 20.8672C123.316 20.6328 123.047 20.4219 122.648 20.2344C122.258 20.0469 121.68 19.875 120.914 19.7188C120.242 19.5703 119.625 19.3945 119.062 19.1914C118.508 18.9805 118.031 18.7266 117.633 18.4297C117.234 18.1328 116.926 17.7812 116.707 17.375C116.488 16.9688 116.379 16.5 116.379 15.9688C116.379 15.4531 116.492 14.9648 116.719 14.5039C116.945 14.043 117.27 13.6367 117.691 13.2852C118.113 12.9336 118.625 12.6562 119.227 12.4531C119.836 12.25 120.516 12.1484 121.266 12.1484C122.328 12.1484 123.238 12.3281 123.996 12.6875C124.762 13.0391 125.348 13.5195 125.754 14.1289C126.16 14.7305 126.363 15.4102 126.363 16.168H123.539C123.539 15.832 123.453 15.5195 123.281 15.2305C123.117 14.9336 122.867 14.6953 122.531 14.5156C122.195 14.3281 121.773 14.2344 121.266 14.2344C120.781 14.2344 120.379 14.3125 120.059 14.4688C119.746 14.6172 119.512 14.8125 119.355 15.0547C119.207 15.2969 119.133 15.5625 119.133 15.8516C119.133 16.0625 119.172 16.2539 119.25 16.4258C119.336 16.5898 119.477 16.7422 119.672 16.8828C119.867 17.0156 120.133 17.1406 120.469 17.2578C120.812 17.375 121.242 17.4883 121.758 17.5977C122.727 17.8008 123.559 18.0625 124.254 18.3828C124.957 18.6953 125.496 19.1016 125.871 19.6016C126.246 20.0938 126.434 20.7188 126.434 21.4766C126.434 22.0391 126.312 22.5547 126.07 23.0234C125.836 23.4844 125.492 23.8867 125.039 24.2305C124.586 24.5664 124.043 24.8281 123.41 25.0156C122.785 25.2031 122.082 25.2969 121.301 25.2969C120.152 25.2969 119.18 25.0938 118.383 24.6875C117.586 24.2734 116.98 23.7461 116.566 23.1055C116.16 22.457 115.957 21.7852 115.957 21.0898H118.688C118.719 21.6133 118.863 22.0312 119.121 22.3438C119.387 22.6484 119.715 22.8711 120.105 23.0117C120.504 23.1445 120.914 23.2109 121.336 23.2109C121.844 23.2109 122.27 23.1445 122.613 23.0117C122.957 22.8711 123.219 22.6836 123.398 22.4492C123.578 22.207 123.668 21.9336 123.668 21.6289Z" fill="#9CA3AF"/>
</svg>
