<svg width="284" height="241" viewBox="0 0 284 241" fill="none" xmlns="http://www.w3.org/2000/svg">
<path d="M118.976 0.0444336C160.546 0.0444336 197.046 21.7866 218.113 54.7942L148.492 120.133L218.113 185.473C197.046 218.368 160.546 240.223 118.976 240.223C53.7481 240.223 0.799805 186.487 0.799805 120.133C0.912461 53.7803 53.7481 0.0444336 118.976 0.0444336Z" fill="#CC66FF"/>
<path d="M183.978 0.0444336C225.548 0.0444336 262.049 21.7866 283.115 54.7942L213.494 120.133L283.115 185.473C262.049 218.368 225.548 240.223 183.978 240.223C118.751 240.223 65.8022 186.487 65.8022 120.133C65.8022 53.7803 118.751 0.0444336 183.978 0.0444336Z" fill="#53EAFD"/>
<path d="M151.533 4.55054C179.247 12.549 202.792 30.6862 218.226 54.6815L148.604 120.021L218.226 185.36C202.904 209.355 179.359 227.493 151.533 235.491C102.078 221.184 65.915 174.883 65.915 120.021C65.915 65.271 102.078 18.9702 151.533 4.55054Z" fill="#4F39F6"/>
<path d="M151.533 4.55054C179.247 12.549 202.792 30.6862 218.226 54.6815L148.604 120.021L218.226 185.36C202.904 209.355 179.359 227.493 151.533 235.491C102.078 221.184 65.915 174.883 65.915 120.021C65.915 65.271 102.078 18.9702 151.533 4.55054Z" fill="#4F39F6"/>
</svg>
